{"glyphs":{":":{"x_min":0,"x_max":188,"ha":188,"o":"m 108 343 b 123 347 138 359 138 376 b 137 397 134 415 127 434 b 124 442 114 443 107 444 b 100 444 93 442 88 438 b 82 433 76 428 75 420 b 73 413 74 405 74 398 b 74 385 75 372 74 359 b 72 342 97 340 108 343 z m 91 140 b 77 136 66 127 61 113 b 53 89 51 63 50 37 b 49 15 81 11 96 15 b 115 21 138 37 136 60 b 135 84 133 108 124 130 b 119 142 101 143 91 140 z"},"$":{"x_min":0,"x_max":489,"ha":489,"o":"m 319 323 b 307 336 293 350 279 365 b 285 465 293 566 304 666 b 353 647 368 585 378 536 b 382 511 428 527 424 549 b 416 592 407 639 377 673 b 359 693 335 706 309 711 b 315 766 322 821 330 876 b 333 902 290 894 287 874 b 280 821 273 768 267 715 b 262 715 257 714 252 714 b 155 702 61 621 51 520 b 39 396 133 310 215 232 b 219 228 223 223 228 219 b 224 131 223 43 223 -45 b 210 -41 199 -35 189 -27 b 142 14 129 86 156 142 b 168 165 131 163 122 148 b 69 60 110 -50 202 -89 b 209 -92 216 -94 223 -96 b 223 -128 223 -160 224 -192 b 225 -216 271 -202 271 -179 b 270 -153 269 -127 269 -101 b 342 -96 406 -38 430 34 b 466 145 391 246 319 323 z m 238 412 b 197 464 164 523 178 588 b 188 632 218 666 262 671 b 252 585 245 498 238 412 z m 320 -12 b 310 -34 290 -46 268 -49 b 268 25 269 98 271 172 b 315 119 349 53 320 -12 z"},"?":{"x_min":0,"x_max":533,"ha":533,"o":"m 468 699 b 449 740 411 770 369 786 b 282 819 184 786 121 721 b 58 656 19 544 82 467 b 96 450 135 476 120 495 b 68 558 105 653 156 705 b 186 736 226 756 270 760 b 313 764 365 753 385 710 b 402 673 397 628 387 590 b 375 545 358 500 342 457 b 311 372 278 288 252 201 b 237 153 224 105 214 56 b 204 6 191 -51 198 -102 b 207 -170 320 -131 329 -80 b 340 -28 341 26 351 78 b 361 132 375 185 390 238 b 420 342 454 445 475 550 b 485 599 490 652 468 699 z m 233 -209 b 223 -232 224 -259 220 -283 b 216 -306 235 -321 257 -319 b 278 -317 310 -302 313 -278 b 316 -254 322 -217 309 -196 b 291 -170 244 -182 233 -209 z"},"<":{"x_min":0,"x_max":478,"ha":478,"o":"m 395 238 b 351 248 305 251 260 256 b 243 258 225 260 207 262 b 235 277 264 291 294 304 b 332 320 373 334 403 362 b 414 372 415 392 400 398 b 348 418 278 388 229 369 b 202 358 175 346 149 332 b 121 317 89 302 68 277 b 51 255 41 221 61 197 b 81 173 120 169 149 164 b 213 154 278 152 342 141 b 372 136 408 153 423 181 b 437 208 423 231 395 238 z"},"'":{"x_min":0,"x_max":165,"ha":165,"o":"m 102 761 b 100 785 56 770 57 748 b 58 691 52 634 50 577 b 49 544 115 562 115 594 b 114 650 106 705 102 761 z"},"=":{"x_min":0,"x_max":560,"ha":560,"o":"m 75 273 b 98 263 127 265 152 266 b 178 266 203 267 228 268 b 283 268 338 268 393 267 b 416 267 443 285 451 307 b 458 326 448 349 425 350 b 368 354 311 354 253 349 b 200 345 133 345 85 318 b 71 310 50 284 75 273 z m 467 238 b 341 229 207 235 85 199 b 71 194 54 183 50 167 b 48 154 57 141 71 139 b 132 134 195 141 256 144 b 319 148 383 153 446 151 b 472 150 504 172 510 198 b 516 224 491 240 467 238 z"},"a":{"x_min":0,"x_max":513,"ha":513,"o":"m 497 189 b 481 147 465 106 446 66 b 432 37 413 -9 384 -29 b 367 -18 367 24 365 40 b 360 74 360 109 362 143 b 364 215 377 286 381 357 b 382 388 341 396 319 392 b 298 388 278 378 264 362 b 209 398 119 373 69 328 b -4 264 -41 143 -13 50 b 0 6 31 -33 81 -31 b 121 -29 159 -7 182 24 b 204 55 217 93 228 130 b 228 123 228 115 228 108 b 232 47 247 -43 309 -73 b 367 -102 421 -54 452 -7 b 491 54 516 124 541 192 b 549 216 504 208 497 189 z m 182 114 b 171 81 159 39 128 19 b 100 0 90 55 88 74 b 82 135 92 201 125 255 b 137 274 154 296 176 304 b 194 311 216 308 233 299 b 220 236 204 174 182 114 z"},"L":{"x_min":0,"x_max":512,"ha":512,"o":"m 312 899 b 227 984 118 870 77 796 b 22 696 0 580 -13 468 b -26 352 -30 235 -24 118 b -18 6 0 -109 41 -215 b 58 -260 84 -309 125 -337 b 165 -365 214 -381 263 -375 b 367 -362 424 -269 462 -181 b 512 -67 545 55 556 180 b 558 203 519 196 517 177 b 504 83 484 -10 452 -99 b 426 -172 392 -272 324 -316 b 245 -368 183 -248 165 -189 b 137 -99 129 0 122 94 b 121 106 120 118 120 130 b 240 270 322 443 352 626 b 366 712 381 831 312 899 z m 307 637 b 283 474 217 319 118 188 b 116 255 118 321 122 388 b 129 481 137 575 156 666 b 166 709 178 751 194 792 b 200 808 206 824 216 838 b 222 847 244 873 249 873 b 267 873 285 846 292 833 b 303 813 309 792 312 769 b 318 725 314 681 307 637 z"},"3":{"x_min":0,"x_max":562,"ha":562,"o":"m 96 132 b 82 132 71 123 67 111 b 53 75 43 37 57 0 b 68 -30 89 -54 117 -70 b 183 -107 268 -97 333 -67 b 409 -33 463 32 491 108 b 518 180 524 272 473 334 b 449 364 414 387 375 400 b 446 479 485 588 414 674 b 369 727 306 748 238 736 b 173 725 108 686 74 628 b 43 574 34 474 110 454 b 129 450 153 480 128 487 b 94 496 90 544 95 573 b 101 608 121 639 149 662 b 197 701 274 720 330 686 b 383 653 375 569 351 520 b 328 472 287 426 238 401 b 233 398 227 396 221 393 b 199 381 172 354 185 326 b 199 299 237 304 260 314 b 279 323 313 306 330 297 b 357 284 380 262 389 233 b 405 176 384 100 354 51 b 322 2 269 -30 210 -26 b 180 -24 149 -12 127 8 b 95 36 103 77 115 114 b 119 126 106 133 96 132 z"},";":{"x_min":0,"x_max":231,"ha":231,"o":"m 103 357 b 112 353 123 353 132 355 b 150 361 170 376 169 397 b 168 412 168 434 155 444 b 141 456 116 449 105 436 b 91 418 91 397 90 375 b 89 367 97 360 103 357 z m 87 126 b 76 86 66 45 59 4 b 55 -24 38 -81 65 -101 b 75 -108 89 -105 98 -98 b 131 -75 138 -27 149 9 b 160 50 170 91 180 132 b 193 187 98 168 87 126 z"},"J":{"x_min":0,"x_max":1041,"ha":1041,"o":"m 86 620 b 66 557 109 470 185 495 b 208 502 211 536 182 528 b 150 519 127 560 125 586 b 123 620 142 655 166 678 b 215 725 290 743 353 763 b 423 786 494 807 566 823 b 592 829 641 841 655 809 b 661 798 661 784 665 772 b 670 759 672 745 675 732 b 705 596 712 452 711 313 b 711 304 711 295 711 285 b 674 285 638 283 601 280 b 448 265 285 234 147 164 b 26 103 -80 -3 -105 -142 b -129 -271 -61 -412 59 -470 b 190 -534 360 -494 480 -423 b 603 -351 706 -239 765 -109 b 815 2 839 121 846 241 b 914 233 982 219 1047 196 b 1067 189 1101 221 1077 229 b 1002 255 925 271 847 279 b 848 306 848 333 847 359 b 845 441 835 523 818 603 b 803 675 787 763 736 820 b 723 835 705 840 688 849 b 675 856 664 863 650 866 b 607 875 562 860 522 849 b 432 826 343 799 256 766 b 185 739 110 698 86 620 z m 142 -415 b 24 -389 -66 -292 -61 -167 b -56 -39 37 66 146 125 b 277 197 435 227 582 242 b 625 246 667 248 710 249 b 704 139 686 27 643 -73 b 562 -265 373 -465 142 -415 z"},"V":{"x_min":0,"x_max":1281,"ha":1281,"o":"m 311 824 b 184 901 32 828 -44 715 b -50 706 -43 696 -33 693 b -20 691 -8 699 -2 709 b 40 769 105 817 180 818 b 217 819 255 809 285 788 b 318 764 335 724 345 685 b 366 608 369 524 369 445 b 369 356 366 268 367 180 b 368 21 374 -153 471 -286 b 511 -342 572 -398 643 -409 b 713 -420 775 -381 824 -334 b 932 -229 986 -79 1029 63 b 1039 94 1047 126 1055 158 b 1140 153 1228 171 1307 200 b 1316 203 1329 210 1327 222 b 1326 232 1313 236 1304 233 b 1229 206 1145 189 1064 194 b 1090 311 1103 431 1098 551 b 1094 629 1083 709 1059 783 b 1037 849 991 914 918 924 b 777 944 698 772 681 659 b 657 502 712 326 843 230 b 896 191 956 170 1018 161 b 1005 104 988 48 969 -8 b 947 -75 920 -142 884 -203 b 850 -261 803 -326 742 -357 b 668 -397 607 -337 574 -274 b 542 -215 530 -147 520 -81 b 496 77 496 235 488 393 b 481 546 455 736 311 824 z m 898 244 b 778 319 716 466 719 604 b 720 674 737 746 773 806 b 806 863 867 914 935 879 b 1005 841 1026 753 1040 681 b 1055 605 1060 527 1058 449 b 1055 365 1044 281 1026 198 b 982 205 938 220 898 244 z"},"\"":{"x_min":0,"x_max":246,"ha":246,"o":"m 99 769 b 86 767 72 759 66 747 b 51 721 51 683 50 653 b 49 632 79 629 94 633 b 114 638 131 654 132 675 b 133 689 133 703 133 717 b 134 731 135 744 130 758 b 125 769 109 771 99 769 z m 193 748 b 194 771 149 759 147 741 b 142 710 137 679 140 648 b 142 617 196 637 196 663 b 195 691 191 720 193 748 z"},"7":{"x_min":0,"x_max":429,"ha":429,"o":"m 366 335 b 354 336 343 337 331 337 b 344 388 357 438 368 488 b 383 556 396 663 317 696 b 282 711 242 709 205 707 b 159 704 113 696 69 683 b 44 676 42 642 71 650 b 111 660 150 667 191 670 b 224 671 286 682 290 638 b 294 602 282 560 273 526 b 261 487 247 450 233 412 b 225 387 216 363 208 338 b 195 338 182 337 169 336 b 147 333 131 298 161 300 b 173 301 184 302 196 302 b 181 258 168 214 155 170 b 133 90 108 10 97 -73 b 93 -106 119 -125 151 -124 b 186 -122 220 -98 230 -65 b 260 28 279 126 302 221 b 308 247 315 274 322 300 b 330 299 338 299 346 298 b 367 296 395 331 366 335 z"},"S":{"x_min":0,"x_max":916,"ha":916,"o":"m 602 365 b 613 359 628 367 635 374 b 720 459 772 585 746 706 b 721 817 641 909 530 938 b 284 1001 0 809 -33 558 b -49 431 -3 314 83 221 b 174 122 294 59 409 -7 b 444 -28 479 -49 512 -73 b 484 -103 458 -134 436 -167 b 406 -212 382 -268 397 -322 b 411 -371 452 -409 499 -424 b 604 -457 727 -365 746 -262 b 765 -163 708 -74 636 -7 b 726 70 830 136 944 167 b 969 173 971 208 941 200 b 827 169 722 106 630 32 b 623 27 617 22 610 16 b 594 30 577 43 560 54 b 450 130 326 186 225 275 b 134 354 62 458 66 583 b 70 714 150 821 268 874 b 403 935 577 920 662 787 b 744 657 704 494 600 391 b 592 383 593 371 602 365 z m 655 -269 b 659 -322 637 -378 581 -391 b 522 -405 460 -364 442 -308 b 425 -252 459 -195 492 -152 b 508 -133 524 -114 541 -96 b 551 -104 561 -112 571 -121 b 614 -160 650 -209 655 -269 z"},"}":{"x_min":0,"x_max":619,"ha":619,"o":"m 559 328 b 470 416 417 531 368 645 b 343 704 322 767 292 825 b 267 872 238 934 178 939 b 160 940 133 910 160 906 b 193 901 213 870 219 840 b 226 808 230 776 237 744 b 251 682 267 619 285 558 b 310 474 348 394 400 323 b 380 310 362 293 349 273 b 329 242 319 206 313 170 b 306 128 299 85 291 43 b 278 -33 277 -120 244 -192 b 219 -249 165 -293 102 -256 b 81 -244 33 -277 56 -298 b 108 -346 184 -344 243 -311 b 312 -273 353 -203 374 -129 b 397 -50 408 33 422 115 b 428 152 431 193 444 229 b 448 237 453 247 457 252 b 458 253 456 255 459 253 b 485 235 519 240 543 259 b 564 274 581 306 559 328 z"},"Z":{"x_min":0,"x_max":1119,"ha":1119,"o":"m -11 435 b 32 371 115 354 187 359 b 265 364 341 394 402 443 b 432 466 456 493 477 525 b 491 545 453 549 443 535 b 399 476 340 431 269 409 b 204 390 122 385 64 426 b -56 510 35 703 102 792 b 181 898 299 975 430 999 b 509 1014 591 1008 660 964 b 716 929 755 876 786 819 b 844 713 866 586 864 463 b 834 455 803 447 773 439 b 749 432 747 397 776 406 b 805 414 834 421 863 428 b 862 410 861 392 859 374 b 854 322 845 270 832 220 b 795 211 758 201 722 189 b 558 137 403 51 275 -65 b 216 -118 156 -186 146 -268 b 135 -351 187 -411 263 -438 b 445 -502 624 -378 736 -244 b 842 -116 920 40 961 202 b 1021 205 1082 196 1122 147 b 1136 130 1176 157 1160 176 b 1114 232 1038 243 970 240 b 972 250 974 260 976 270 b 987 330 993 393 993 455 b 995 455 998 456 1000 456 b 1026 461 1027 495 997 490 b 996 490 994 490 992 489 b 988 603 963 715 908 814 b 870 883 819 942 753 984 b 680 1029 591 1047 506 1044 b 348 1039 197 960 94 843 b 46 787 7 723 -17 653 b -41 585 -53 499 -11 435 z m 714 -74 b 648 -192 558 -323 425 -369 b 361 -391 266 -400 216 -344 b 163 -284 210 -192 252 -141 b 305 -77 376 -25 445 20 b 515 66 591 105 670 134 b 719 153 770 168 821 180 b 795 92 759 7 714 -74 z"},"x":{"x_min":0,"x_max":413,"ha":413,"o":"m 403 186 b 378 136 355 82 320 38 b 303 17 280 -4 253 -9 b 225 -15 208 5 194 27 b 169 65 157 113 146 158 b 191 218 237 276 286 333 b 307 357 267 367 251 349 b 211 302 173 255 136 206 b 127 252 121 299 112 346 b 99 417 -28 373 -21 310 b -13 236 0 160 30 91 b 33 84 36 77 40 70 b 19 40 0 9 -19 -22 b -33 -46 9 -46 20 -29 b 33 -8 46 13 60 34 b 86 -5 121 -38 170 -47 b 227 -58 288 -40 330 0 b 381 48 411 118 441 180 b 453 204 412 204 403 186 z"},")":{"x_min":0,"x_max":574,"ha":574,"o":"m 511 455 b 495 572 467 690 415 796 b 389 849 356 897 307 930 b 262 959 214 985 162 958 b 137 945 150 917 176 929 b 225 952 261 897 281 862 b 302 823 320 783 333 741 b 364 647 379 548 389 449 b 408 270 409 64 314 -96 b 267 -174 197 -219 104 -202 b 77 -197 25 -239 64 -259 b 158 -310 282 -266 357 -200 b 444 -124 490 -10 510 101 b 531 217 526 338 511 455 z"},"&":{"x_min":0,"x_max":748,"ha":748,"o":"m 686 -35 b 601 -29 516 -16 438 17 b 487 63 537 106 600 137 b 602 138 605 140 607 141 b 609 132 610 123 608 116 b 597 79 688 97 659 135 b 652 144 651 163 647 174 b 642 185 636 195 629 204 b 614 221 595 232 573 235 b 562 236 549 231 544 221 b 539 212 543 202 554 200 b 569 198 581 190 589 178 b 589 178 589 178 588 178 b 509 155 446 98 386 43 b 385 43 385 43 384 44 b 347 65 314 92 286 124 b 306 145 328 165 349 186 b 425 260 502 335 557 426 b 607 507 651 610 599 700 b 578 737 551 763 509 776 b 469 789 426 786 387 772 b 202 705 119 468 154 288 b 161 247 175 209 194 173 b 173 152 152 131 133 109 b 100 72 63 30 53 -20 b 44 -64 56 -111 95 -138 b 191 -206 303 -108 371 -45 b 382 -35 393 -24 405 -14 b 487 -49 577 -64 667 -69 b 677 -70 691 -66 696 -55 b 700 -47 697 -35 686 -35 z m 219 542 b 252 629 324 732 423 746 b 467 752 515 737 542 701 b 570 663 550 602 532 563 b 491 473 424 399 356 329 b 315 287 272 248 230 208 b 221 225 214 243 208 262 b 181 353 186 454 219 542 z m 254 -68 b 223 -88 160 -111 159 -52 b 158 -5 201 33 230 65 b 238 73 245 82 253 90 b 274 67 298 47 324 29 b 334 23 343 17 353 12 b 322 -17 290 -45 254 -68 z"},"_":{"x_min":0,"x_max":592,"ha":592,"o":"m 500 -80 b 427 -85 356 -93 283 -101 b 249 -104 214 -108 180 -113 b 162 -116 144 -119 126 -122 b 111 -124 94 -131 79 -131 b 65 -132 51 -143 50 -158 b 49 -189 95 -185 115 -185 b 156 -186 197 -185 238 -182 b 318 -177 399 -173 479 -165 b 505 -163 535 -146 541 -120 b 546 -94 523 -79 500 -80 z"},"v":{"x_min":0,"x_max":468,"ha":468,"o":"m 484 205 b 442 202 402 214 371 238 b 383 284 393 330 396 377 b 398 415 398 483 342 475 b 293 468 270 411 266 368 b 261 308 285 255 326 219 b 309 158 287 98 258 43 b 249 25 238 7 225 -8 b 219 -15 213 -23 205 -28 b 193 -35 186 -35 177 -26 b 155 -1 144 37 136 68 b 111 157 113 252 113 343 b 112 377 68 382 43 376 b 12 368 -18 342 -18 308 b -17 194 -14 69 58 -26 b 92 -71 136 -84 190 -71 b 239 -59 271 -14 293 27 b 321 79 340 136 357 192 b 358 193 358 195 358 196 b 393 176 434 167 476 172 b 497 174 513 208 484 205 z m 355 371 b 354 346 350 321 345 297 b 343 288 341 279 339 271 b 325 290 315 312 311 337 b 308 356 308 374 312 392 b 315 407 332 456 349 430 b 358 416 355 387 355 371 z"},"O":{"x_min":0,"x_max":1013,"ha":1013,"o":"m 772 582 b 745 747 690 926 538 1017 b 397 1102 214 1069 101 954 b -12 841 -66 651 -1 500 b 19 453 49 413 86 380 b 79 369 73 358 68 348 b -8 206 -54 7 10 -147 b 72 -299 232 -378 391 -334 b 568 -285 673 -123 730 42 b 747 92 760 143 770 195 b 812 198 854 201 896 200 b 941 199 984 190 1024 169 b 1042 160 1075 189 1052 201 b 987 235 914 238 843 234 b 820 232 798 231 775 230 b 792 347 791 466 772 582 z m 41 526 b 9 601 12 687 35 765 b 76 901 204 1049 361 1022 b 506 998 591 852 626 723 b 668 574 676 406 655 253 b 654 245 652 236 651 228 b 634 228 617 229 599 231 b 451 245 289 285 167 373 b 159 380 150 386 143 393 b 207 492 304 573 421 549 b 443 545 471 581 441 587 b 307 613 190 525 113 420 b 82 450 57 485 41 526 z m 498 -155 b 416 -251 272 -306 161 -221 b 20 -113 24 91 72 244 b 83 278 98 315 119 352 b 189 298 276 262 358 238 b 445 212 535 196 626 191 b 632 191 638 191 645 191 b 622 67 581 -60 498 -155 z"},"(":{"x_min":0,"x_max":572,"ha":572,"o":"m 484 -203 b 303 -240 217 -7 192 130 b 156 318 178 525 227 709 b 239 758 256 805 279 850 b 300 891 337 954 392 928 b 410 919 443 947 420 959 b 377 981 333 964 296 940 b 250 911 213 874 185 827 b 125 725 91 604 72 487 b 38 269 25 4 174 -177 b 248 -268 391 -310 499 -257 b 535 -239 528 -194 484 -203 z"},"C":{"x_min":0,"x_max":791,"ha":791,"o":"m -2 307 b -28 189 -43 64 -31 -57 b -20 -172 12 -301 102 -380 b 189 -455 301 -456 401 -407 b 508 -354 588 -260 654 -163 b 729 -55 788 63 832 186 b 841 210 797 202 790 184 b 727 11 632 -168 497 -296 b 435 -356 340 -426 251 -379 b 175 -338 141 -245 126 -165 b 90 28 107 224 166 411 b 191 489 224 565 272 632 b 313 689 369 758 444 763 b 467 765 484 765 505 755 b 525 744 541 726 550 704 b 569 658 563 596 551 549 b 539 502 515 453 480 420 b 444 386 380 380 364 437 b 357 458 315 438 321 416 b 332 375 375 353 415 355 b 462 356 503 387 532 422 b 597 500 630 616 606 716 b 581 817 477 861 381 832 b 267 798 180 704 116 608 b 57 518 21 412 -2 307 z"},"W":{"x_min":0,"x_max":1678,"ha":1678,"o":"m 644 -193 b 625 -169 614 -137 608 -107 b 594 -49 587 12 583 71 b 574 193 580 315 577 437 b 574 553 564 675 516 782 b 497 827 470 873 429 900 b 388 928 340 954 291 961 b 187 975 87 923 26 841 b -28 766 -60 661 -26 571 b 10 476 122 448 213 470 b 255 480 293 503 315 541 b 328 564 289 563 279 547 b 248 498 174 493 122 503 b 62 516 19 560 8 621 b -11 731 55 861 158 908 b 214 933 283 934 337 902 b 362 887 372 862 386 837 b 400 813 412 790 421 763 b 464 643 463 506 459 380 b 455 250 446 118 466 -11 b 482 -120 534 -301 676 -287 b 770 -278 834 -197 877 -114 b 921 -204 984 -291 1080 -322 b 1199 -362 1325 -298 1395 -200 b 1430 -149 1451 -91 1472 -33 b 1495 30 1516 95 1533 159 b 1536 169 1538 179 1541 190 b 1594 180 1649 181 1702 192 b 1728 198 1730 234 1699 227 b 1647 216 1597 217 1550 227 b 1573 332 1587 440 1584 548 b 1581 670 1564 815 1492 917 b 1428 1008 1315 1044 1218 983 b 1118 920 1090 800 1106 689 b 1137 475 1280 263 1492 201 b 1488 186 1484 171 1480 156 b 1463 94 1441 34 1416 -26 b 1394 -80 1368 -135 1330 -180 b 1299 -217 1258 -250 1208 -253 b 1160 -256 1121 -226 1089 -194 b 1023 -128 978 -40 946 48 b 979 143 1003 242 1013 342 b 1019 401 1019 461 1003 519 b 990 564 966 629 908 621 b 859 614 832 563 817 522 b 796 459 789 389 788 323 b 784 195 804 65 851 -54 b 853 -58 855 -62 856 -66 b 848 -83 840 -99 830 -115 b 816 -140 799 -164 779 -185 b 760 -204 731 -233 703 -232 b 680 -231 658 -209 644 -193 z m 1186 568 b 1145 675 1115 819 1193 916 b 1225 956 1274 985 1327 978 b 1384 971 1433 930 1462 881 b 1524 778 1536 639 1536 521 b 1535 426 1523 332 1502 240 b 1356 289 1241 423 1186 568 z m 870 530 b 874 549 889 596 917 582 b 941 571 953 531 960 508 b 969 478 972 447 973 416 b 977 315 956 209 925 111 b 911 161 901 212 892 263 b 881 319 872 377 868 434 b 865 466 865 498 870 530 z"},"A":{"x_min":0,"x_max":1025,"ha":1025,"o":"m 27 -404 b 65 -458 127 -475 188 -447 b 254 -416 299 -349 338 -290 b 415 -175 471 -47 519 83 b 541 86 563 89 585 93 b 654 105 723 118 793 122 b 804 6 825 -110 872 -215 b 940 -365 1081 -503 1259 -468 b 1287 -462 1302 -418 1263 -419 b 1090 -424 1020 -232 978 -97 b 955 -19 941 61 932 142 b 933 145 933 148 930 151 b 921 235 915 320 907 403 b 892 554 881 742 766 854 b 712 907 640 936 564 929 b 491 923 421 889 361 848 b 244 767 160 643 97 518 b 23 372 -28 212 -46 49 b -55 -33 -54 -114 -41 -196 b -29 -266 -16 -345 27 -404 z m 643 136 b 606 129 569 122 532 117 b 534 122 536 127 538 133 b 565 208 590 284 616 359 b 642 432 667 509 704 577 b 718 603 734 627 755 647 b 759 619 763 590 765 561 b 773 480 778 400 781 319 b 784 265 786 211 791 156 b 741 152 692 145 643 136 z m 5 -6 b 16 155 66 311 128 459 b 180 583 248 706 353 794 b 407 839 474 880 545 890 b 630 901 685 846 718 773 b 731 744 741 714 747 683 b 695 640 662 582 636 520 b 607 454 583 385 559 316 b 535 248 512 179 487 111 b 466 108 446 106 425 105 b 401 104 373 100 354 119 b 341 132 307 110 322 94 b 349 65 396 71 433 73 b 447 74 460 75 474 77 b 450 13 425 -50 395 -111 b 362 -178 326 -244 282 -305 b 246 -355 183 -450 110 -417 b 48 -389 29 -300 17 -241 b 1 -164 0 -84 5 -6 z"},"f":{"x_min":0,"x_max":407,"ha":407,"o":"m 419 204 b 347 192 277 166 214 131 b 192 118 170 105 150 89 b 150 93 149 97 148 100 b 138 154 131 209 127 265 b 209 369 280 482 327 607 b 354 677 372 750 379 825 b 385 891 389 971 347 1028 b 330 1051 306 1066 278 1072 b 260 1076 257 1076 238 1073 b 210 1070 171 1054 150 1032 b 150 1031 149 1031 149 1030 b 146 1028 144 1026 141 1024 b 134 1017 127 1011 120 1003 b 108 988 97 972 87 955 b 67 921 53 884 40 847 b -21 672 -28 476 -16 293 b -10 206 3 121 27 37 b 48 -34 77 -100 140 -138 b 175 -159 220 -166 255 -142 b 274 -129 293 -108 305 -90 b 328 -56 325 -13 304 22 b 285 53 252 80 214 81 b 206 82 199 81 192 79 b 209 91 227 102 245 111 b 301 140 360 160 421 174 b 444 179 445 209 419 204 z m 122 420 b 122 449 123 478 124 507 b 125 521 125 535 126 550 b 126 557 127 563 127 570 b 128 573 129 585 129 587 b 133 641 140 696 148 750 b 157 802 168 853 183 903 b 186 914 190 925 193 935 b 194 936 194 936 194 936 b 195 939 196 941 196 943 b 198 947 200 952 203 956 b 209 970 217 983 224 997 b 227 1001 231 1005 234 1009 b 227 1003 228 1004 238 1013 b 233 1009 232 1008 236 1011 b 237 1013 240 1014 242 1016 b 242 1016 242 1016 243 1016 b 243 1016 243 1016 244 1016 b 254 1019 240 1015 246 1018 b 250 1019 250 1019 245 1018 b 248 1019 250 1019 251 1019 b 259 1020 265 1020 273 1017 b 318 1001 329 943 333 902 b 337 852 332 801 323 752 b 293 595 218 452 124 323 b 122 355 122 388 122 420 z m 200 48 b 218 48 236 35 248 22 b 272 -2 297 -65 258 -90 b 221 -113 189 -38 178 -12 b 175 -4 172 4 169 13 b 168 15 168 17 167 20 b 174 34 183 48 200 48 z"},"Q":{"x_min":0,"x_max":1013,"ha":1013,"o":"m 772 582 b 745 747 690 926 538 1017 b 397 1102 214 1069 101 954 b -12 841 -66 651 -1 500 b 19 453 49 413 86 380 b 79 369 73 358 68 348 b -8 206 -54 7 10 -147 b 39 -219 91 -275 154 -309 b 105 -326 58 -362 21 -397 b 14 -404 15 -415 23 -420 b 33 -425 45 -418 52 -412 b 94 -374 142 -332 202 -334 b 260 -336 298 -390 343 -420 b 424 -476 528 -498 618 -449 b 645 -434 630 -402 603 -417 b 550 -446 488 -443 434 -420 b 391 -402 358 -373 323 -346 b 345 -344 368 -341 391 -334 b 568 -285 673 -123 730 42 b 747 92 760 143 770 195 b 812 198 854 201 896 200 b 941 199 984 190 1024 169 b 1042 160 1075 189 1052 201 b 987 235 914 238 843 234 b 820 232 798 231 775 230 b 792 347 791 466 772 582 z m 41 526 b 9 601 12 687 35 765 b 76 901 204 1049 361 1022 b 506 998 591 852 626 723 b 668 574 676 406 655 253 b 654 245 652 236 651 228 b 634 228 617 229 599 231 b 451 245 289 285 167 373 b 159 380 150 386 143 393 b 207 492 304 573 421 549 b 443 545 471 581 441 587 b 307 613 190 525 113 420 b 82 450 57 485 41 526 z m 498 -155 b 416 -251 272 -306 161 -221 b 20 -113 24 91 72 244 b 83 278 98 315 119 352 b 189 298 276 262 358 238 b 445 212 535 196 626 191 b 632 191 638 191 645 191 b 622 67 581 -60 498 -155 z"},"w":{"x_min":0,"x_max":678,"ha":678,"o":"m 694 205 b 661 205 624 214 592 230 b 597 278 597 326 592 371 b 588 407 574 466 524 449 b 484 435 467 384 466 346 b 464 284 497 237 545 208 b 543 192 540 176 537 161 b 528 113 516 63 492 21 b 485 10 468 -22 451 -23 b 433 -23 420 7 415 19 b 378 106 375 202 370 295 b 368 325 330 331 307 325 b 282 318 260 300 253 276 b 253 274 252 273 252 271 b 242 217 232 163 215 111 b 207 88 167 -13 134 26 b 106 59 106 119 103 160 b 99 217 106 273 107 330 b 108 357 72 364 52 361 b 28 356 -5 338 -9 310 b -21 238 -23 159 -2 88 b 13 32 50 -39 119 -32 b 176 -26 220 22 242 72 b 249 89 256 107 261 126 b 272 65 295 7 335 -40 b 371 -82 420 -80 466 -55 b 507 -32 532 5 549 48 b 566 92 579 139 587 188 b 619 176 653 170 686 172 b 707 172 722 204 694 205 z m 549 259 b 520 287 503 324 511 370 b 513 381 516 398 524 406 b 528 418 533 418 538 405 b 541 398 543 391 545 384 b 549 361 550 337 551 314 b 551 296 550 278 549 259 z"},"-":{"x_min":0,"x_max":507,"ha":507,"o":"m 412 307 b 357 304 303 300 248 297 b 194 294 137 295 83 283 b 65 278 32 242 63 230 b 112 211 170 212 222 210 b 278 208 334 210 390 215 b 417 217 450 235 456 264 b 463 293 437 309 412 307 z"},"E":{"x_min":0,"x_max":760,"ha":760,"o":"m 410 395 b 377 385 342 404 333 437 b 327 458 284 438 290 416 b 308 352 387 344 438 369 b 502 401 543 473 564 538 b 586 607 594 694 558 759 b 527 813 455 842 394 838 b 252 829 124 724 49 610 b -23 503 -59 359 -15 235 b 6 176 49 122 101 82 b 84 68 69 53 56 38 b -16 -44 -44 -150 -9 -254 b 33 -373 154 -451 279 -435 b 406 -419 512 -313 585 -216 b 678 -94 750 43 802 186 b 810 210 766 202 759 184 b 718 70 662 -39 595 -140 b 532 -234 455 -329 351 -378 b 294 -405 239 -405 189 -364 b 150 -332 121 -284 108 -235 b 96 -192 97 -144 109 -101 b 119 -68 135 -40 153 -19 b 159 -12 165 -6 171 0 b 171 0 170 -1 170 -1 b 170 -1 171 0 171 0 b 171 0 172 1 172 1 b 174 3 179 7 175 4 b 177 5 179 7 181 9 b 192 18 204 26 216 34 b 216 34 216 34 217 34 b 221 36 224 39 228 40 b 232 42 236 44 239 46 b 275 61 314 123 262 146 b 259 147 256 149 252 151 b 248 153 244 155 241 158 b 238 159 236 160 234 162 b 233 162 233 162 232 162 b 232 163 232 163 232 163 b 204 185 177 206 157 234 b 136 262 116 310 113 353 b 109 400 115 441 128 487 b 154 574 210 657 282 710 b 318 737 360 755 406 767 b 469 783 518 732 527 674 b 539 602 523 528 485 466 b 468 438 443 405 410 395 z"},"s":{"x_min":0,"x_max":332,"ha":332,"o":"m 338 209 b 285 179 232 148 183 111 b 175 123 168 134 160 145 b 132 188 104 233 88 283 b 82 303 77 337 86 358 b 100 388 141 372 156 354 b 170 339 205 362 191 381 b 139 450 29 400 -4 336 b -53 241 -2 147 54 70 b 64 56 75 41 87 26 b 86 25 85 24 84 23 b 38 -28 -41 -150 35 -209 b 109 -266 225 -191 247 -115 b 268 -43 238 23 201 84 b 250 122 304 154 355 186 b 375 198 356 220 338 209 z m 157 -147 b 156 -171 148 -183 122 -188 b 95 -193 67 -185 56 -158 b 39 -115 66 -61 91 -26 b 96 -19 102 -11 108 -4 b 137 -48 160 -96 157 -147 z"},">":{"x_min":0,"x_max":409,"ha":409,"o":"m 357 301 b 345 345 282 364 244 376 b 199 390 142 412 95 405 b 83 403 59 393 63 376 b 71 338 119 321 151 309 b 171 301 190 294 209 284 b 215 281 222 278 228 275 b 215 270 202 265 189 261 b 155 249 120 240 87 225 b 69 217 48 195 50 173 b 52 153 75 140 95 143 b 152 152 207 175 260 197 b 301 214 372 243 357 301 z"},"l":{"x_min":0,"x_max":388,"ha":388,"o":"m 380 186 b 356 137 330 86 295 43 b 279 24 261 4 237 -7 b 232 -9 227 -11 219 -12 b 199 -15 181 7 170 22 b 158 40 149 62 142 83 b 136 100 136 103 131 122 b 133 115 128 132 128 134 b 126 142 124 150 123 158 b 116 191 111 224 107 257 b 103 289 100 321 98 353 b 175 451 243 557 289 673 b 314 736 334 800 344 867 b 354 931 361 1001 342 1065 b 328 1114 294 1159 239 1166 b 225 1167 210 1166 197 1163 b 193 1162 176 1156 179 1157 b 172 1155 166 1152 160 1149 b 154 1146 149 1143 143 1139 b 165 1152 130 1132 135 1135 b 131 1132 126 1129 122 1126 b 108 1115 97 1102 86 1088 b 66 1062 48 1033 35 1002 b -33 847 -50 672 -49 504 b -49 418 -44 332 -29 248 b -17 179 0 105 35 44 b 52 14 72 -16 101 -35 b 142 -63 197 -58 242 -41 b 330 -6 379 101 415 180 b 426 204 388 203 380 186 z m 216 1103 b 215 1103 215 1103 215 1103 b 217 1104 218 1105 216 1103 z m 215 1103 b 215 1103 215 1103 215 1103 b 215 1103 214 1102 213 1102 b 213 1102 213 1102 213 1102 b 214 1102 215 1103 215 1103 z m 92 478 b 91 631 102 770 136 920 b 143 950 151 980 161 1009 b 163 1015 165 1021 167 1028 b 168 1029 168 1029 168 1030 b 168 1030 169 1031 170 1033 b 175 1045 181 1057 188 1068 b 189 1071 191 1073 192 1075 b 195 1080 199 1085 203 1091 b 202 1090 205 1094 208 1098 b 208 1098 208 1098 208 1098 b 210 1098 212 1100 213 1101 b 215 1103 219 1104 220 1104 b 233 1108 245 1106 257 1097 b 314 1058 308 960 302 901 b 295 833 278 766 255 702 b 217 597 160 501 94 412 b 93 434 93 456 92 478 z"},"8":{"x_min":0,"x_max":457,"ha":457,"o":"m 324 660 b 289 708 227 728 170 710 b 103 690 62 626 53 559 b 43 488 61 422 103 364 b 114 349 126 335 139 321 b 120 300 105 276 93 251 b 65 191 42 118 54 51 b 65 -5 101 -57 156 -76 b 217 -97 289 -79 340 -41 b 462 50 394 213 317 309 b 317 309 317 309 317 309 b 337 364 351 421 358 478 b 365 542 363 607 324 660 z m 318 53 b 316 -5 245 -31 196 -12 b 126 15 115 107 127 170 b 134 210 146 254 168 291 b 191 267 215 244 237 219 b 276 174 320 116 318 53 z m 197 461 b 171 512 146 599 182 651 b 204 683 246 664 269 643 b 298 616 308 576 311 538 b 315 476 303 410 284 348 b 252 384 218 418 197 461 z"},"\\":{"x_min":0,"x_max":539,"ha":539,"o":"m 488 -156 b 447 21 389 194 326 364 b 295 447 262 528 227 609 b 208 652 188 693 168 734 b 158 753 147 771 137 790 b 124 811 105 829 92 851 b 83 866 45 854 50 835 b 57 812 56 788 62 765 b 67 744 73 723 79 703 b 92 660 105 617 119 575 b 148 489 176 402 203 316 b 258 143 304 -32 357 -205 b 366 -234 413 -230 434 -222 b 457 -214 495 -186 488 -156 z"},"e":{"x_min":0,"x_max":373,"ha":373,"o":"m 366 176 b 326 105 285 25 222 -29 b 190 -56 152 -68 126 -28 b 105 3 100 41 99 77 b 97 126 104 179 120 228 b 154 227 187 234 213 257 b 241 282 254 319 242 355 b 228 400 186 414 144 399 b 94 383 57 343 30 300 b -19 219 -37 104 -5 14 b 10 -28 36 -68 77 -88 b 117 -107 167 -100 206 -81 b 301 -35 354 82 400 171 b 411 192 375 192 366 176 z m 146 293 b 154 306 162 320 172 332 b 175 335 179 339 183 342 b 183 342 184 342 184 342 b 189 340 192 336 194 331 b 203 315 197 294 184 281 b 171 267 152 265 134 266 b 138 275 142 284 146 293 z"},"b":{"x_min":0,"x_max":580,"ha":580,"o":"m 594 215 b 549 213 504 204 462 188 b 456 225 444 261 424 293 b 395 339 334 384 277 370 b 209 353 167 279 142 219 b 135 201 129 183 124 165 b 123 173 122 181 121 189 b 119 221 117 254 115 286 b 186 378 246 478 293 585 b 322 651 346 719 358 791 b 368 856 376 939 343 999 b 312 1056 258 1073 198 1049 b 132 1022 83 961 53 899 b 23 838 9 772 0 705 b -10 629 -16 552 -18 475 b -21 390 -18 304 -10 219 b -6 177 0 135 8 93 b 16 48 24 2 49 -37 b 67 -67 123 -48 128 -16 b 128 -12 129 -8 129 -4 b 130 -3 130 -2 130 -2 b 146 97 162 202 221 286 b 237 309 258 335 289 337 b 325 338 333 310 340 281 b 351 233 354 186 353 136 b 353 136 352 135 352 134 b 314 110 278 82 247 52 b 204 12 168 -37 151 -93 b 133 -150 160 -212 226 -214 b 298 -215 367 -155 404 -98 b 444 -39 460 29 465 99 b 466 117 466 135 465 152 b 504 167 544 176 585 178 b 608 179 625 216 594 215 z m 112 387 b 110 516 118 645 139 772 b 146 815 203 1059 285 981 b 330 939 321 843 312 788 b 302 722 279 657 253 596 b 215 508 168 425 113 347 b 112 361 112 374 112 387 z m 263 -123 b 251 -136 235 -155 215 -150 b 186 -142 198 -98 205 -78 b 219 -34 249 4 283 36 b 303 55 325 73 349 90 b 340 12 315 -63 263 -123 z"},"%":{"x_min":0,"x_max":801,"ha":801,"o":"m 729 735 b 743 761 730 788 701 793 b 669 798 638 779 621 753 b 514 594 428 419 348 246 b 308 158 269 69 234 -21 b 201 -109 165 -197 149 -290 b 140 -339 215 -322 230 -293 b 275 -207 308 -116 347 -27 b 385 60 422 146 463 232 b 545 403 640 567 729 735 z m 338 467 b 358 537 345 648 261 670 b 221 680 167 660 135 625 b 129 626 123 626 118 625 b 91 620 68 603 59 577 b 44 529 50 474 62 426 b 72 384 86 340 128 320 b 229 272 314 383 338 467 z m 167 608 b 195 638 252 649 270 605 b 290 557 266 487 243 445 b 237 434 231 424 223 415 b 220 411 217 408 213 404 b 211 401 209 400 207 400 b 199 403 191 421 187 431 b 167 485 176 540 171 595 b 170 600 169 604 167 608 z m 656 198 b 624 207 586 205 554 192 b 524 212 457 182 451 146 b 443 97 442 46 452 -3 b 461 -46 477 -93 517 -117 b 610 -173 712 -77 742 7 b 769 83 738 173 656 198 z m 632 -7 b 628 -13 616 -32 608 -34 b 610 -33 602 -29 599 -25 b 592 -16 588 -5 584 6 b 566 56 574 110 569 162 b 578 165 587 167 597 165 b 620 162 636 142 646 122 b 665 80 658 30 632 -7 z"},"m":{"x_min":0,"x_max":737,"ha":737,"o":"m 724 182 b 701 137 687 88 666 43 b 656 22 645 1 630 -16 b 624 -22 599 -46 589 -36 b 585 -32 586 -13 585 -8 b 582 43 581 94 581 145 b 580 197 583 250 568 301 b 559 334 531 388 493 398 b 456 408 420 373 401 346 b 367 298 345 240 327 181 b 323 211 315 240 305 269 b 288 316 247 360 192 334 b 144 311 124 245 109 198 b 106 191 104 185 102 178 b 103 215 107 253 111 291 b 118 362 5 338 -6 283 b -17 229 -19 173 -15 118 b -12 67 -5 6 32 -33 b 52 -54 95 -31 102 -6 b 104 3 106 12 107 21 b 115 63 124 106 136 148 b 149 194 162 246 191 286 b 194 291 197 295 201 298 b 202 304 202 303 202 295 b 203 286 201 276 201 268 b 201 243 202 217 202 192 b 203 142 202 90 209 40 b 213 9 248 2 274 9 b 298 16 318 31 327 53 b 329 55 331 57 332 60 b 348 111 364 163 382 213 b 398 258 416 313 450 347 b 482 379 469 322 467 303 b 465 279 464 254 462 230 b 458 174 448 118 448 61 b 448 13 462 -44 510 -66 b 546 -83 595 -82 630 -61 b 709 -12 724 99 763 176 b 776 201 734 201 724 182 z"},"#":{"x_min":0,"x_max":739,"ha":739,"o":"m 677 447 b 641 449 606 450 571 450 b 574 557 580 665 583 772 b 583 800 548 806 528 803 b 503 799 471 781 466 753 b 451 651 445 548 444 444 b 423 442 403 440 383 437 b 384 541 389 645 394 748 b 396 776 357 783 337 780 b 311 776 279 757 273 728 b 255 624 247 519 246 413 b 186 400 126 383 68 362 b 45 353 42 319 70 329 b 128 349 187 366 246 379 b 247 357 247 335 248 312 b 188 297 128 278 70 257 b 48 248 53 216 78 225 b 134 246 191 263 249 278 b 249 274 250 270 250 267 b 253 192 260 118 271 45 b 282 -30 292 -113 324 -182 b 346 -229 423 -185 424 -145 b 426 -71 409 5 401 79 b 394 154 388 228 385 303 b 385 304 385 305 385 305 b 405 308 425 311 445 314 b 445 297 445 280 446 263 b 448 184 453 104 461 25 b 465 -14 470 -53 476 -92 b 482 -132 488 -179 509 -214 b 526 -242 575 -221 581 -194 b 590 -156 587 -114 585 -75 b 583 -34 581 6 579 46 b 574 127 571 209 570 291 b 569 302 569 313 569 324 b 590 325 611 325 632 326 b 656 326 673 364 641 364 b 617 364 593 363 569 362 b 569 379 570 397 570 414 b 599 414 628 413 657 412 b 668 411 682 415 687 426 b 691 435 688 447 677 447 z m 384 341 b 383 361 383 382 383 402 b 403 405 423 407 444 409 b 444 389 444 370 444 350 b 424 347 404 344 384 341 z"},",":{"x_min":0,"x_max":238,"ha":238,"o":"m 146 88 b 118 86 95 69 86 43 b 67 -8 49 -66 50 -121 b 51 -160 116 -139 126 -116 b 150 -63 165 -5 186 50 b 195 74 166 89 146 88 z"},"n":{"x_min":0,"x_max":488,"ha":488,"o":"m 475 191 b 455 144 433 97 409 52 b 401 38 380 -12 359 -9 b 347 -8 350 16 350 26 b 352 129 370 238 331 337 b 316 373 274 393 236 381 b 195 369 173 326 157 290 b 139 253 125 214 114 175 b 113 235 120 295 119 355 b 118 383 83 391 61 387 b 33 383 2 364 -4 334 b -19 271 -17 205 -13 140 b -9 82 -2 9 37 -38 b 57 -62 103 -34 110 -10 b 112 -2 114 8 115 17 b 128 72 140 128 157 182 b 166 210 176 238 188 266 b 195 282 215 337 238 345 b 240 334 236 320 236 310 b 236 294 234 278 233 262 b 230 224 227 185 226 146 b 223 83 211 -4 277 -41 b 327 -69 389 -48 421 -4 b 462 51 490 121 515 185 b 526 212 483 211 475 191 z"},"h":{"x_min":0,"x_max":513,"ha":513,"o":"m 503 178 b 475 121 448 64 418 8 b 412 -5 405 -18 396 -29 b 389 -38 364 -59 353 -42 b 348 -35 354 -22 355 -14 b 357 0 359 15 362 30 b 372 93 376 159 377 223 b 378 272 380 342 335 373 b 225 453 154 215 133 149 b 131 143 129 136 127 130 b 125 149 123 169 121 189 b 119 221 117 254 115 286 b 186 378 246 478 293 585 b 322 651 346 719 358 791 b 368 856 376 939 343 999 b 312 1056 258 1073 198 1049 b 132 1022 83 961 53 899 b 23 838 9 772 0 705 b -10 629 -16 552 -18 475 b -21 390 -18 304 -10 219 b -6 177 0 135 8 93 b 16 48 24 2 49 -37 b 67 -67 123 -48 128 -17 b 129 -15 129 -13 130 -12 b 155 98 185 216 244 313 b 250 323 269 354 281 353 b 283 353 282 352 281 343 b 279 331 279 318 277 306 b 273 276 270 245 265 215 b 250 123 200 -45 323 -83 b 376 -100 422 -61 447 -18 b 482 43 510 108 540 171 b 552 196 511 196 503 178 z m 112 387 b 110 516 118 645 139 772 b 146 815 203 1059 285 981 b 330 939 321 843 312 788 b 302 722 279 657 253 596 b 215 508 168 425 113 347 b 112 361 112 374 112 387 z"},"z":{"x_min":0,"x_max":480,"ha":480,"o":"m 481 185 b 432 166 385 142 339 114 b 307 169 260 213 200 229 b 210 245 220 260 229 276 b 243 302 269 344 254 374 b 238 406 196 406 166 406 b 119 405 72 391 27 378 b 3 371 1 336 30 344 b 62 354 94 363 126 367 b 144 369 165 372 183 368 b 188 366 198 366 200 359 b 200 355 188 344 186 342 b 145 295 106 249 62 205 b 33 176 54 129 96 135 b 161 145 208 99 237 42 b 204 15 172 -13 141 -43 b 94 -88 52 -139 19 -195 b -14 -250 -43 -317 -28 -381 b -17 -434 23 -481 78 -488 b 140 -495 202 -457 245 -417 b 291 -374 338 -319 361 -260 b 386 -198 401 -130 395 -62 b 391 -15 378 37 355 84 b 400 112 447 136 496 155 b 523 166 508 196 481 185 z m 276 -209 b 269 -256 258 -309 235 -351 b 211 -396 166 -444 112 -449 b 54 -454 17 -396 15 -344 b 12 -286 41 -230 72 -182 b 102 -136 139 -94 179 -55 b 202 -33 227 -11 252 10 b 261 -14 268 -38 271 -59 b 280 -108 282 -159 276 -209 z"},"B":{"x_min":0,"x_max":1197,"ha":1197,"o":"m -36 219 b -23 119 52 63 130 11 b 169 -16 208 -44 237 -82 b 245 -92 252 -103 258 -114 b 233 -134 209 -155 186 -178 b 146 -220 113 -272 110 -331 b 106 -390 133 -443 175 -484 b 220 -527 269 -557 329 -574 b 393 -593 461 -597 527 -591 b 769 -566 1021 -397 1066 -146 b 1084 -46 1071 57 1026 147 b 1088 156 1150 162 1212 161 b 1240 161 1260 205 1222 205 b 1150 206 1078 195 1007 182 b 997 197 987 212 975 226 b 931 281 868 321 803 348 b 781 357 758 364 735 371 b 766 391 795 412 822 436 b 892 494 967 567 1001 653 b 1017 694 1022 740 1001 780 b 984 812 955 840 923 858 b 842 908 736 909 644 895 b 474 868 314 788 188 671 b 126 613 72 547 30 473 b -14 398 -47 308 -36 219 z m 945 -104 b 938 -302 770 -462 584 -504 b 528 -516 470 -519 414 -511 b 359 -503 297 -488 248 -460 b 203 -434 158 -382 164 -326 b 169 -274 206 -228 240 -191 b 250 -180 261 -169 271 -159 b 282 -213 299 -268 333 -307 b 348 -323 382 -305 386 -287 b 400 -219 386 -144 381 -76 b 477 -15 587 28 691 62 b 754 83 820 103 887 119 b 929 53 947 -26 945 -104 z m 136 559 b 232 679 361 772 506 822 b 590 851 681 870 770 860 b 843 852 947 820 947 730 b 948 681 912 639 882 605 b 851 573 819 542 785 514 b 716 458 638 412 555 381 b 528 372 496 353 495 321 b 494 293 519 275 546 279 b 654 295 780 241 853 162 b 856 159 860 155 863 151 b 808 137 752 121 698 103 b 592 67 480 25 379 -33 b 376 28 375 89 376 149 b 377 294 383 439 366 583 b 363 611 329 617 306 611 b 278 604 255 582 253 553 b 246 405 237 256 242 108 b 244 62 247 17 251 -29 b 248 -25 244 -22 241 -18 b 188 32 119 62 68 114 b -59 244 43 442 136 559 z"},"K":{"x_min":0,"x_max":1152,"ha":1152,"o":"m 360 980 b 360 1040 246 1009 241 961 b 228 811 221 662 220 512 b 201 515 182 516 161 517 b 87 521 -26 511 -42 418 b -58 325 50 321 112 331 b 150 337 187 348 222 361 b 223 339 223 317 224 294 b 229 187 237 79 252 -27 b 260 -82 268 -136 281 -190 b 293 -243 304 -297 330 -345 b 351 -383 415 -349 415 -313 b 415 -258 404 -203 396 -148 b 389 -97 382 -46 377 6 b 367 101 361 196 358 291 b 369 276 380 260 391 244 b 495 93 597 -89 781 -151 b 999 -225 1120 21 1195 180 b 1208 208 1163 207 1153 187 b 1113 104 1073 19 1011 -49 b 982 -82 939 -123 892 -112 b 873 -108 852 -93 835 -83 b 815 -71 796 -57 778 -42 b 628 84 555 274 415 406 b 401 419 387 431 373 442 b 456 499 530 570 602 641 b 643 681 684 721 728 760 b 759 787 830 866 873 824 b 888 810 925 834 908 851 b 845 919 749 825 702 784 b 630 721 564 652 495 587 b 451 546 404 506 355 472 b 354 641 360 811 360 980 z m 137 372 b 103 364 48 352 18 378 b 1 393 -1 418 9 438 b 21 463 49 473 74 478 b 98 483 126 485 149 476 b 170 468 188 455 207 443 b 211 440 216 437 221 433 b 221 422 221 410 221 398 b 194 387 166 378 137 372 z"},"R":{"x_min":0,"x_max":1295,"ha":1295,"o":"m -26 257 b -75 154 -2 51 91 7 b 112 -3 135 -11 158 -17 b 161 -61 165 -105 170 -149 b 176 -199 184 -249 193 -298 b 203 -347 211 -401 245 -440 b 259 -457 290 -438 295 -421 b 305 -390 305 -358 303 -325 b 315 -224 328 -123 344 -22 b 355 -20 365 -18 376 -16 b 382 -29 389 -43 395 -56 b 443 -154 495 -252 569 -334 b 649 -424 763 -495 888 -466 b 1015 -436 1109 -354 1179 -246 b 1258 -127 1299 13 1339 149 b 1346 173 1302 166 1296 146 b 1262 32 1228 -83 1170 -188 b 1141 -240 1107 -288 1064 -330 b 1023 -369 966 -409 907 -407 b 851 -405 804 -375 762 -341 b 724 -310 688 -276 656 -239 b 592 -165 540 -81 481 -4 b 477 1 473 6 469 11 b 477 14 486 18 494 21 b 615 72 722 158 812 254 b 895 343 966 449 997 568 b 1026 678 1021 807 920 877 b 827 941 710 918 627 847 b 534 767 478 647 435 536 b 387 414 358 286 334 157 b 316 174 298 191 280 207 b 280 410 292 612 295 815 b 295 844 258 851 237 847 b 212 843 175 823 172 795 b 155 634 147 471 147 308 b 131 316 114 322 95 324 b 45 328 -5 303 -26 257 z m 318 72 b 306 70 294 69 282 69 b 281 94 280 120 280 145 b 295 127 309 108 321 88 b 320 82 319 77 318 72 z m 289 -107 b 289 -107 289 -107 289 -107 b 288 -80 286 -54 285 -28 b 291 -28 296 -27 301 -27 b 297 -54 293 -80 289 -107 z m 414 328 b 441 437 476 545 527 645 b 571 732 633 838 732 870 b 778 884 839 884 877 851 b 914 820 920 760 918 716 b 916 617 880 521 827 437 b 774 354 706 281 630 218 b 562 162 486 116 402 90 b 392 101 382 111 371 122 b 370 122 370 122 370 123 b 383 192 397 260 414 328 z m 149 163 b 150 137 151 111 152 86 b 110 99 72 122 45 155 b 19 186 0 253 44 279 b 78 299 116 280 148 253 b 148 223 148 193 149 163 z"},"T":{"x_min":0,"x_max":1018,"ha":1018,"o":"m 1272 923 b 1319 919 1401 907 1406 847 b 1408 822 1453 837 1451 859 b 1444 952 1311 962 1241 961 b 1132 961 1023 938 918 911 b 832 888 746 862 661 836 b 647 837 633 834 624 831 b 617 828 609 824 601 818 b 600 818 599 818 598 818 b 490 787 378 756 265 753 b 167 750 15 775 -7 893 b -11 914 -50 901 -47 882 b -33 801 41 752 116 731 b 221 702 334 719 438 741 b 483 751 529 763 574 776 b 574 774 574 772 574 770 b 606 589 655 412 680 230 b 680 229 680 228 681 227 b 650 218 620 207 592 193 b 438 122 291 -21 304 -203 b 309 -286 347 -370 416 -421 b 482 -470 563 -476 635 -434 b 713 -390 757 -305 782 -221 b 813 -121 820 -11 818 93 b 818 134 816 175 813 216 b 847 218 882 217 916 213 b 955 208 1007 204 1033 171 b 1044 158 1079 178 1069 193 b 1048 224 1014 234 979 241 b 935 250 891 254 847 253 b 834 253 822 252 809 251 b 803 319 793 387 781 454 b 759 575 732 695 695 811 b 824 850 952 890 1085 911 b 1146 920 1210 928 1272 923 z m 666 -298 b 647 -363 609 -435 530 -426 b 452 -416 393 -346 367 -277 b 304 -113 402 39 538 126 b 583 156 633 178 685 193 b 705 31 712 -140 666 -298 z"},"P":{"x_min":0,"x_max":952,"ha":952,"o":"m 121 861 b 122 894 77 899 54 893 b 22 884 -4 860 -6 827 b -27 466 -33 93 37 -264 b 56 -363 76 -468 123 -559 b 139 -591 197 -563 195 -532 b 193 -506 191 -481 187 -455 b 183 -210 186 37 224 279 b 243 399 271 518 310 633 b 346 739 394 857 479 933 b 516 966 576 999 626 971 b 666 949 688 893 701 852 b 736 741 726 609 699 497 b 690 461 678 426 662 394 b 544 421 406 420 315 331 b 278 295 242 234 268 182 b 289 140 345 123 388 120 b 518 112 650 190 726 291 b 733 301 740 312 746 322 b 824 288 895 239 954 178 b 970 163 1010 189 993 207 b 929 273 852 325 768 359 b 819 458 838 573 834 684 b 829 801 792 956 669 1003 b 613 1024 559 1025 506 996 b 451 967 410 920 376 870 b 300 757 257 623 223 492 b 169 281 147 63 144 -156 b 137 -101 132 -46 127 9 b 113 188 110 369 113 549 b 115 653 118 757 121 861 z m 542 252 b 503 226 459 209 414 196 b 373 183 303 181 311 245 b 319 304 382 345 434 361 b 500 380 572 372 638 357 b 639 357 640 357 641 357 b 616 316 583 281 542 252 z"},"|":{"x_min":0,"x_max":251,"ha":251,"o":"m 178 369 b 176 454 175 540 173 626 b 171 708 172 801 132 875 b 118 901 75 877 74 853 b 70 768 74 683 68 598 b 62 509 57 420 54 330 b 49 154 45 -26 65 -201 b 73 -276 201 -228 201 -165 b 198 13 184 191 178 369 z"},"t":{"x_min":0,"x_max":388,"ha":388,"o":"m 179 1144 b 181 1145 183 1146 185 1146 b 181 1145 180 1145 179 1144 z m 848 922 b 742 940 632 941 524 937 b 467 935 410 931 353 926 b 356 969 355 1011 343 1052 b 328 1102 295 1147 239 1153 b 225 1154 211 1153 197 1150 b 193 1149 178 1144 179 1144 b 173 1142 166 1139 160 1136 b 155 1133 149 1129 144 1126 b 165 1139 131 1118 136 1121 b 132 1119 127 1116 123 1113 b 110 1102 98 1089 88 1075 b 67 1048 50 1020 36 989 b 22 957 10 923 0 889 b -46 884 -92 880 -139 876 b -201 872 -263 869 -325 868 b -368 868 -486 859 -474 932 b -470 956 -510 949 -514 930 b -531 823 -376 834 -312 835 b -211 837 -110 845 -9 855 b -39 737 -48 612 -47 491 b -47 406 -43 319 -28 235 b -15 166 1 93 36 32 b 53 2 74 -28 102 -48 b 142 -76 197 -71 242 -54 b 331 -19 379 88 416 168 b 426 191 388 191 380 173 b 356 124 331 73 296 31 b 279 11 261 -9 237 -19 b 232 -22 228 -24 220 -25 b 200 -28 178 -4 168 12 b 156 30 147 51 141 72 b 140 74 136 86 137 84 b 135 92 132 100 130 108 b 131 106 127 120 127 123 b 125 130 123 138 122 145 b 115 178 110 211 106 244 b 102 275 99 307 97 339 b 174 438 243 544 290 661 b 315 723 334 788 344 854 b 346 867 348 880 350 893 b 467 903 584 908 701 901 b 797 895 975 891 986 762 b 988 738 1031 752 1029 773 b 1022 867 930 909 848 922 z m 255 689 b 217 584 160 487 94 397 b 93 421 92 445 92 468 b 90 606 100 735 127 870 b 186 876 244 883 302 888 b 296 820 279 753 255 689 z m 305 922 b 248 916 191 910 134 904 b 135 907 136 909 136 912 b 143 941 151 970 161 998 b 163 1003 165 1009 167 1015 b 167 1015 167 1015 167 1015 b 167 1016 167 1016 167 1017 b 169 1019 169 1022 171 1024 b 175 1035 181 1045 187 1056 b 189 1059 190 1061 192 1064 b 192 1063 185 1054 190 1061 b 194 1066 197 1071 201 1077 b 205 1080 212 1087 204 1082 b 205 1082 205 1082 205 1082 b 206 1083 206 1084 207 1084 b 207 1084 215 1089 217 1091 b 218 1091 218 1091 219 1091 b 221 1092 224 1093 225 1093 b 237 1094 248 1092 258 1084 b 304 1052 309 980 305 922 z"},"M":{"x_min":0,"x_max":1284,"ha":1284,"o":"m 943 628 b 934 698 918 787 838 809 b 764 830 709 777 672 718 b 586 582 542 424 512 267 b 496 309 483 351 474 395 b 460 465 450 535 436 604 b 416 694 373 918 233 863 b 172 839 140 766 117 710 b 91 644 70 575 54 506 b 18 357 -1 205 -29 55 b -44 -27 -61 -109 -87 -188 b -100 -228 -114 -268 -134 -305 b -144 -322 -156 -337 -168 -352 b -173 -360 -179 -367 -185 -374 b -190 -378 -194 -383 -198 -387 b -201 -389 -202 -390 -203 -391 b -235 -379 -288 -427 -250 -449 b -186 -486 -115 -399 -93 -348 b -67 -285 -45 -222 -28 -156 b 9 -13 31 133 54 279 b 78 426 106 574 163 711 b 176 743 191 776 213 803 b 222 813 238 836 255 829 b 265 824 274 804 278 794 b 305 733 310 657 317 592 b 324 516 328 439 341 364 b 354 288 372 206 417 142 b 452 94 554 136 540 193 b 541 194 541 194 541 195 b 569 359 608 524 689 670 b 708 705 730 751 767 770 b 816 796 829 733 831 697 b 835 608 828 520 822 432 b 811 254 781 74 805 -103 b 816 -183 835 -266 905 -315 b 962 -354 1036 -365 1097 -329 b 1175 -283 1206 -193 1237 -113 b 1273 -22 1303 72 1327 168 b 1334 194 1287 186 1282 165 b 1260 80 1234 -5 1202 -87 b 1187 -128 1170 -169 1151 -209 b 1133 -243 1110 -282 1074 -298 b 915 -369 938 28 939 97 b 940 274 965 451 943 628 z"},"g":{"x_min":0,"x_max":500,"ha":500,"o":"m 494 175 b 469 145 434 124 401 104 b 394 100 387 96 380 92 b 382 180 386 274 369 360 b 359 410 287 399 258 365 b 202 396 117 372 68 328 b -4 264 -41 143 -13 50 b 0 6 31 -33 81 -31 b 120 -29 159 -7 182 24 b 211 65 224 119 237 166 b 240 175 242 183 244 191 b 246 164 247 137 248 110 b 249 81 250 53 250 24 b 201 -1 152 -26 105 -54 b -2 -120 -111 -219 -115 -355 b -117 -421 -89 -492 -38 -536 b 13 -579 79 -581 140 -558 b 287 -501 335 -346 358 -203 b 371 -118 378 -31 380 55 b 432 83 489 115 526 160 b 544 182 508 191 494 175 z m 182 114 b 170 81 158 39 128 19 b 100 0 90 55 88 74 b 81 135 91 201 124 255 b 136 274 153 296 176 304 b 193 311 215 308 233 299 b 220 236 203 174 182 114 z m 251 -104 b 250 -173 248 -242 239 -310 b 231 -372 218 -435 177 -485 b 134 -536 63 -555 6 -513 b -46 -474 -71 -406 -70 -343 b -67 -210 54 -120 158 -61 b 189 -44 220 -27 251 -12 b 252 -42 252 -73 251 -104 z"},"j":{"x_min":0,"x_max":238,"ha":238,"o":"m 232 175 b 207 145 172 124 139 104 b 132 100 125 96 118 92 b 120 180 124 274 107 360 b 95 421 -11 391 -16 340 b -24 264 -16 186 -14 110 b -13 81 -12 53 -12 24 b -61 -1 -110 -26 -157 -54 b -264 -120 -373 -219 -377 -355 b -379 -421 -351 -492 -300 -536 b -249 -579 -183 -581 -122 -558 b 25 -501 73 -346 96 -203 b 109 -118 116 -31 118 55 b 170 83 227 115 264 160 b 282 182 246 191 232 175 z m -11 -104 b -12 -173 -14 -242 -23 -310 b -31 -372 -44 -435 -85 -485 b -128 -536 -199 -555 -256 -513 b -308 -474 -333 -406 -332 -343 b -329 -210 -208 -120 -104 -61 b -73 -44 -42 -27 -11 -12 b -10 -42 -10 -73 -11 -104 z m 23 429 b 29 421 45 418 57 428 b 84 448 111 471 127 501 b 137 521 149 557 129 575 b 106 597 73 573 58 555 b 52 547 46 538 41 529 b 32 549 22 567 7 578 b -4 587 -21 582 -30 572 b -49 551 -41 516 -31 492 b -20 465 -1 444 23 429 z"},"i":{"x_min":0,"x_max":275,"ha":275,"o":"m 264 215 b 241 165 221 113 195 64 b 183 41 170 18 152 0 b 147 -5 132 -21 124 -16 b 119 -13 115 6 114 11 b 108 36 111 65 110 91 b 109 120 109 148 110 176 b 111 232 119 287 122 343 b 124 372 84 380 64 376 b 36 371 3 352 -2 322 b -16 251 -21 174 -11 102 b -3 46 14 -49 84 -56 b 143 -62 184 -25 214 21 b 252 80 278 148 302 213 b 309 234 271 229 264 215 z m 36 414 b 43 406 58 403 71 412 b 97 433 124 456 140 486 b 150 506 162 541 142 560 b 119 581 87 558 71 539 b 65 531 59 523 54 514 b 45 533 35 552 20 563 b 9 572 -8 566 -16 557 b -35 536 -27 500 -18 476 b -7 450 12 429 36 414 z"},"y":{"x_min":0,"x_max":538,"ha":538,"o":"m 532 175 b 507 145 472 124 439 104 b 432 100 425 96 418 92 b 420 180 424 274 407 360 b 395 421 289 391 284 340 b 284 336 283 332 283 329 b 271 278 260 227 243 177 b 233 151 222 125 209 100 b 199 82 176 33 153 29 b 116 24 113 136 112 160 b 111 223 119 285 122 348 b 124 378 83 386 61 382 b 34 378 -3 357 -7 327 b -19 246 -25 163 -2 84 b 16 20 71 -42 143 -13 b 206 13 240 70 266 131 b 272 146 278 162 283 177 b 284 155 285 132 286 110 b 287 81 288 53 288 24 b 239 -1 190 -26 143 -54 b 36 -120 -73 -219 -77 -355 b -79 -421 -51 -492 0 -536 b 51 -579 117 -581 178 -558 b 325 -501 373 -346 396 -203 b 409 -118 416 -31 418 55 b 470 83 527 115 564 160 b 582 182 546 191 532 175 z m 289 -104 b 288 -173 286 -242 277 -310 b 270 -372 256 -435 215 -485 b 172 -536 101 -555 44 -513 b -8 -474 -33 -406 -32 -343 b -29 -210 92 -120 196 -61 b 227 -44 258 -27 289 -12 b 290 -42 290 -73 289 -104 z"},"@":{"x_min":0,"x_max":883,"ha":883,"o":"m 745 552 b 692 619 618 672 535 694 b 447 717 352 699 275 653 b 105 554 30 343 55 154 b 68 53 116 -47 200 -110 b 285 -173 400 -192 498 -147 b 535 -130 528 -78 483 -92 b 387 -121 291 -91 224 -18 b 152 60 127 168 132 272 b 138 373 172 478 242 554 b 307 623 401 660 495 639 b 591 618 671 544 718 460 b 774 358 764 245 710 144 b 696 118 671 75 635 91 b 603 104 588 147 583 179 b 575 235 579 291 572 347 b 568 382 562 449 516 446 b 519 449 521 453 521 458 b 519 489 494 514 463 517 b 422 522 382 496 353 470 b 286 410 247 319 241 230 b 239 189 258 148 302 142 b 347 136 385 168 409 202 b 432 232 451 266 468 300 b 472 307 475 314 478 320 b 471 280 463 236 463 228 b 459 179 459 133 475 86 b 511 -17 630 -29 712 28 b 791 82 824 188 832 279 b 840 380 807 473 745 552 z m 413 326 b 401 303 390 279 376 258 b 370 249 363 241 355 233 b 348 280 366 333 388 374 b 404 405 442 482 486 441 b 487 439 489 438 490 438 b 453 416 431 360 413 326 z"},".":{"x_min":0,"x_max":181,"ha":181,"o":"m 131 -17 b 130 -10 130 -3 129 3 b 128 11 127 21 123 27 b 116 38 104 41 91 39 b 78 37 62 28 57 16 b 52 6 51 -3 50 -14 b 50 -22 50 -30 50 -38 b 50 -47 57 -54 64 -57 b 73 -61 84 -61 93 -59 b 111 -54 133 -38 131 -17 z"},"p":{"x_min":0,"x_max":571,"ha":571,"o":"m 601 180 b 600 191 587 195 577 191 b 538 177 499 169 459 161 b 460 231 435 301 383 342 b 335 379 279 384 237 336 b 195 286 174 219 157 157 b 139 92 125 25 115 -42 b 115 -27 114 -13 114 2 b 114 126 126 249 135 373 b 137 401 98 408 78 405 b 51 400 22 382 15 353 b -15 225 -21 88 -15 -43 b -12 -107 -6 -170 5 -233 b 11 -266 17 -299 26 -331 b 34 -358 41 -389 69 -401 b 96 -411 130 -391 132 -363 b 133 -345 131 -326 129 -307 b 129 -258 137 -208 143 -159 b 149 -104 157 -49 167 5 b 185 104 205 220 262 306 b 279 330 305 347 327 316 b 340 298 345 274 349 252 b 356 216 358 178 353 141 b 302 131 247 116 212 75 b 179 36 171 -28 223 -54 b 280 -82 355 -60 397 -15 b 430 20 450 71 457 124 b 499 132 540 142 580 156 b 589 159 603 168 601 180 z m 292 -4 b 276 -20 249 -21 238 2 b 226 25 239 52 256 68 b 280 88 313 99 347 106 b 339 68 322 23 292 -4 z"},"X":{"x_min":0,"x_max":1236,"ha":1236,"o":"m 42 830 b -16 765 -49 674 -36 586 b -20 478 66 417 171 409 b 261 403 367 436 406 523 b 417 549 375 549 366 530 b 330 447 227 431 147 450 b 49 473 -2 559 8 657 b 16 744 69 831 150 869 b 195 890 238 890 283 869 b 324 851 362 818 389 782 b 450 701 478 596 501 500 b 521 422 536 343 554 265 b 490 202 426 139 368 71 b 339 36 311 0 291 -41 b 274 -76 253 -124 278 -160 b 290 -177 328 -157 317 -141 b 289 -100 334 -33 357 1 b 384 41 417 77 450 112 b 486 151 524 189 563 227 b 567 210 571 193 575 176 b 600 73 632 -32 685 -124 b 733 -207 809 -287 906 -306 b 1018 -328 1104 -249 1151 -156 b 1204 -49 1246 66 1280 181 b 1288 207 1241 199 1235 178 b 1201 67 1160 -45 1107 -149 b 1084 -194 1050 -250 995 -260 b 942 -269 897 -222 865 -186 b 797 -108 766 1 737 98 b 713 178 695 260 675 342 b 730 399 781 459 825 525 b 876 600 924 693 899 786 b 893 809 851 794 856 775 b 883 673 821 576 763 497 b 733 456 700 418 666 381 b 662 400 657 419 652 438 b 604 631 522 906 283 925 b 191 932 104 899 42 830 z"},"*":{"x_min":0,"x_max":311,"ha":311,"o":"m 249 657 b 230 659 211 660 191 660 b 203 672 215 683 226 695 b 233 702 233 713 224 718 b 214 723 201 716 194 709 b 186 702 178 694 170 686 b 169 703 167 719 166 736 b 165 756 128 743 128 726 b 129 717 129 709 129 700 b 123 706 116 711 110 716 b 94 729 56 703 74 689 b 87 678 100 667 112 656 b 98 655 83 652 68 650 b 44 645 43 612 71 618 b 84 620 96 622 109 623 b 97 611 85 598 74 586 b 55 565 90 557 104 572 b 114 581 123 591 132 601 b 133 582 135 564 136 545 b 138 521 183 536 181 557 b 180 568 179 579 178 590 b 183 585 187 580 191 575 b 205 559 243 584 227 602 b 221 610 214 617 208 624 b 215 623 223 623 230 622 b 251 619 277 654 249 657 z"},"Y":{"x_min":0,"x_max":1210,"ha":1210,"o":"m 938 324 b 936 330 935 336 934 342 b 968 405 993 475 1007 545 b 1023 625 1029 714 1011 794 b 997 852 950 940 876 924 b 841 917 824 889 815 857 b 803 810 794 762 790 714 b 783 610 789 507 802 404 b 808 352 817 301 825 250 b 795 211 758 178 715 160 b 619 119 549 202 513 281 b 474 367 467 465 458 557 b 449 649 438 751 386 831 b 343 898 254 942 174 936 b 93 931 23 881 -14 809 b -46 747 -63 644 5 598 b 34 578 68 576 100 591 b 126 603 111 631 86 620 b 39 599 7 662 4 699 b 1 740 13 782 34 817 b 56 855 91 884 134 896 b 173 907 228 904 260 876 b 289 849 302 808 315 772 b 330 729 335 681 338 636 b 345 541 342 445 361 352 b 379 267 418 184 491 133 b 565 81 659 84 737 124 b 774 143 806 169 834 199 b 838 179 841 158 845 138 b 794 115 745 90 697 61 b 559 -22 394 -148 389 -326 b 386 -411 441 -485 521 -511 b 610 -541 708 -528 788 -480 b 955 -380 1011 -181 995 4 b 991 52 983 101 974 149 b 1013 161 1052 170 1092 178 b 1137 186 1183 191 1230 192 b 1254 193 1271 231 1239 230 b 1146 227 1055 211 967 183 b 958 230 948 277 938 324 z m 863 865 b 865 874 868 885 877 888 b 888 891 903 881 912 875 b 980 827 978 713 973 639 b 968 561 950 484 920 412 b 905 486 892 560 880 635 b 872 685 863 736 858 787 b 856 813 855 839 863 865 z m 851 99 b 867 5 879 -95 861 -190 b 848 -261 821 -330 771 -383 b 719 -438 636 -462 563 -445 b 527 -436 481 -415 463 -382 b 441 -343 441 -296 452 -254 b 473 -172 534 -103 599 -51 b 674 11 760 63 851 103 b 851 101 851 100 851 99 z"},"c":{"x_min":0,"x_max":368,"ha":368,"o":"m 357 195 b 331 126 296 54 248 -2 b 226 -28 189 -64 153 -43 b 129 -29 118 7 114 32 b 104 105 114 179 136 248 b 144 274 152 306 171 327 b 195 356 218 322 228 298 b 237 276 283 296 280 317 b 274 349 262 386 230 399 b 191 417 143 399 110 377 b 36 328 -6 235 -17 150 b -27 71 -23 -33 50 -81 b 119 -128 207 -92 262 -39 b 326 23 365 115 395 198 b 403 219 363 212 357 195 z"},"!":{"x_min":0,"x_max":230,"ha":230,"o":"m 177 503 b 176 562 175 623 166 681 b 158 739 149 802 115 851 b 105 865 77 857 75 840 b 66 781 72 721 71 661 b 69 598 67 536 63 473 b 57 348 50 222 50 97 b 50 64 94 59 118 65 b 149 73 176 98 177 131 b 181 255 180 380 177 503 z m 118 -25 b 105 -29 91 -39 88 -52 b 82 -81 80 -112 85 -141 b 88 -161 110 -166 127 -161 b 146 -156 163 -141 164 -120 b 165 -92 160 -63 151 -35 b 146 -23 128 -23 118 -25 z"},"/":{"x_min":0,"x_max":694,"ha":694,"o":"m 612 796 b 581 801 553 783 536 759 b 430 608 338 447 251 285 b 208 204 167 123 129 40 b 111 0 93 -41 77 -83 b 63 -118 38 -165 56 -203 b 68 -227 105 -209 115 -193 b 159 -117 195 -36 236 43 b 277 123 318 202 361 281 b 448 439 543 590 638 742 b 652 766 637 792 612 796 z"},"[":{"x_min":0,"x_max":391,"ha":391,"o":"m 296 -193 b 266 -195 242 -193 227 -163 b 212 -129 208 -90 203 -54 b 192 35 191 125 188 214 b 182 396 182 578 172 759 b 169 807 166 856 166 904 b 166 924 167 944 170 963 b 172 972 175 980 178 989 b 179 991 180 994 181 997 b 190 1000 199 999 209 992 b 224 981 261 1003 243 1018 b 216 1042 185 1034 156 1026 b 108 1012 82 972 72 925 b 50 817 54 702 52 592 b 50 477 50 363 50 249 b 51 136 50 21 65 -91 b 72 -147 80 -209 117 -253 b 159 -304 232 -301 289 -282 b 312 -274 340 -257 341 -230 b 342 -204 320 -192 296 -193 z"},"6":{"x_min":0,"x_max":538,"ha":538,"o":"m 174 -78 b 237 -116 321 -112 383 -73 b 434 -41 475 10 485 70 b 496 137 472 207 424 254 b 371 307 287 326 216 303 b 204 299 193 294 183 289 b 183 354 190 419 205 482 b 218 536 236 591 271 634 b 292 660 321 683 355 671 b 384 662 406 640 424 617 b 435 602 474 624 462 640 b 423 695 366 725 298 713 b 221 700 165 634 127 570 b 89 504 68 430 58 354 b 48 276 45 191 62 113 b 78 39 106 -36 174 -78 z m 212 254 b 265 286 331 272 376 234 b 417 199 442 148 441 94 b 440 45 413 -16 362 -31 b 252 -64 209 79 195 159 b 191 184 187 209 186 234 b 194 242 203 248 212 254 z"},"r":{"x_min":0,"x_max":441,"ha":441,"o":"m 438 225 b 414 206 358 166 336 203 b 319 231 312 270 308 302 b 303 338 297 374 273 402 b 254 425 233 443 203 426 b 175 410 157 377 144 350 b 131 321 120 291 110 261 b 113 310 117 360 119 409 b 119 436 84 443 65 439 b 40 435 11 418 5 391 b -11 316 -14 240 -14 163 b -14 128 -12 92 -8 57 b -4 21 2 -18 24 -48 b 38 -67 80 -48 87 -30 b 87 -31 87 -31 87 -31 b 90 -25 92 -18 94 -12 b 99 4 100 22 101 38 b 111 104 124 170 144 234 b 156 273 169 311 187 347 b 190 353 209 393 215 392 b 227 388 215 345 214 336 b 208 272 204 176 280 152 b 346 131 412 161 463 202 b 486 221 459 240 438 225 z"},"2":{"x_min":0,"x_max":616,"ha":616,"o":"m 124 -114 b 198 -125 280 -99 336 -49 b 337 -48 338 -47 339 -45 b 344 -47 349 -48 354 -49 b 417 -64 483 -68 546 -48 b 572 -40 574 -3 543 -12 b 487 -30 429 -25 373 -11 b 411 33 440 85 463 140 b 494 213 518 288 533 366 b 558 496 548 670 397 714 b 327 735 256 692 212 639 b 166 583 143 512 148 439 b 150 416 192 430 191 451 b 188 505 201 558 231 604 b 259 646 311 693 366 680 b 417 668 432 594 437 551 b 443 496 436 441 424 388 b 399 278 362 166 302 70 b 291 53 278 36 263 20 b 209 35 153 41 99 16 b 71 2 46 -26 51 -60 b 55 -95 93 -110 124 -114 z m 166 -6 b 185 -5 205 -7 225 -11 b 218 -15 211 -19 204 -22 b 188 -30 169 -36 151 -33 b 143 -32 134 -31 132 -23 b 128 -7 157 -7 166 -6 z"},"{":{"x_min":0,"x_max":618,"ha":618,"o":"m 520 -263 b 496 -278 460 -268 439 -253 b 410 -234 391 -206 377 -175 b 345 -103 343 -19 330 57 b 323 99 316 140 309 181 b 302 216 296 254 278 285 b 262 311 240 329 215 340 b 265 408 302 486 330 566 b 349 622 364 680 377 737 b 383 767 391 796 396 826 b 400 856 409 900 446 906 b 466 909 483 941 454 939 b 393 934 365 882 339 833 b 306 771 284 703 257 639 b 209 521 156 402 64 311 b 47 294 44 264 65 249 b 87 235 113 241 135 253 b 130 251 136 253 147 246 b 158 238 165 225 171 213 b 186 180 188 141 194 106 b 208 24 220 -59 241 -139 b 260 -209 294 -278 360 -315 b 421 -348 502 -342 555 -295 b 588 -266 550 -244 520 -263 z m 136 254 b 137 254 138 255 140 256 b 138 255 137 254 136 254 z m 140 256 b 141 257 143 258 144 259 b 143 258 141 257 140 256 z"},"9":{"x_min":0,"x_max":572,"ha":572,"o":"m 306 -69 b 294 -96 304 -123 335 -129 b 369 -135 401 -114 419 -88 b 488 13 514 137 521 256 b 524 318 522 378 512 439 b 503 494 492 559 465 608 b 454 627 433 646 413 649 b 406 672 383 692 361 695 b 320 700 276 677 242 657 b 171 614 113 546 77 472 b 59 433 44 388 52 345 b 60 306 86 266 127 256 b 207 235 281 299 321 362 b 345 399 361 440 374 481 b 381 504 387 527 394 550 b 395 556 398 567 400 579 b 401 563 400 546 400 534 b 400 504 402 473 402 442 b 403 381 403 318 397 257 b 386 142 352 36 306 -69 z m 372 627 b 360 603 354 573 346 547 b 338 518 330 488 320 458 b 305 416 276 346 229 330 b 210 324 194 339 184 353 b 171 371 168 394 171 415 b 180 470 220 525 258 565 b 275 584 295 601 316 616 b 328 625 339 630 352 635 b 368 641 370 645 375 631 b 374 630 373 628 372 627 z"}," ":{"x_min":0,"x_max":343,"ha":343,"o":""},"I":{"x_min":0,"x_max":814,"ha":814,"o":"m 469 491 b 461 587 445 694 378 768 b 321 832 232 857 152 823 b 70 788 8 703 -21 622 b -52 535 -40 426 36 366 b 103 312 205 318 264 381 b 285 403 247 412 232 396 b 168 329 65 376 29 447 b -14 530 12 627 64 701 b 90 738 124 774 167 792 b 212 810 264 804 292 762 b 314 728 322 688 330 650 b 339 602 343 553 344 504 b 348 401 341 296 330 193 b 320 93 305 -7 305 -107 b 304 -196 317 -302 372 -376 b 421 -444 509 -454 578 -410 b 665 -355 711 -254 749 -163 b 792 -62 824 43 856 148 b 863 172 819 165 813 146 b 782 42 751 -62 709 -161 b 690 -207 668 -253 642 -295 b 618 -333 577 -392 526 -392 b 483 -393 465 -336 456 -303 b 443 -256 440 -205 440 -157 b 440 -52 454 53 463 158 b 473 269 477 380 469 491 z"},"H":{"x_min":0,"x_max":1208,"ha":1208,"o":"m 82 149 b 37 132 -87 69 -34 5 b -22 -10 14 13 0 30 b -27 65 60 105 82 114 b 119 129 158 136 197 139 b 223 141 248 142 274 141 b 276 50 283 -43 297 -133 b 311 -230 326 -337 374 -423 b 395 -460 459 -427 459 -392 b 458 -294 435 -196 426 -99 b 418 -21 414 56 412 134 b 431 133 450 132 469 131 b 536 128 604 126 671 125 b 671 123 671 121 671 118 b 677 6 696 -109 736 -215 b 753 -260 780 -309 821 -337 b 861 -365 909 -381 958 -375 b 1063 -362 1119 -269 1158 -181 b 1208 -67 1241 55 1251 180 b 1253 203 1214 196 1212 177 b 1200 83 1179 -10 1147 -99 b 1121 -172 1088 -272 1020 -316 b 941 -368 878 -248 860 -189 b 833 -99 824 0 817 94 b 817 105 816 117 815 129 b 871 133 926 142 979 161 b 1003 169 1005 205 976 195 b 933 180 890 171 845 167 b 949 300 1020 459 1047 626 b 1061 712 1076 831 1007 899 b 922 984 814 870 773 796 b 718 696 695 580 683 468 b 671 366 666 264 669 161 b 583 162 497 165 411 170 b 411 180 411 190 411 200 b 409 398 433 594 447 791 b 450 822 407 829 386 826 b 358 821 322 800 317 769 b 281 576 270 373 273 176 b 208 177 144 172 82 149 z m 818 388 b 824 481 832 575 852 666 b 861 709 874 751 890 792 b 896 808 902 824 911 838 b 917 847 940 873 945 873 b 962 873 981 846 987 833 b 998 813 1004 792 1008 769 b 1014 725 1009 681 1003 637 b 979 474 913 319 813 188 b 812 255 813 321 818 388 z"},"4":{"x_min":0,"x_max":515,"ha":515,"o":"m 165 113 b 228 103 280 139 335 163 b 335 139 336 115 337 90 b 339 57 342 23 350 -10 b 355 -33 361 -72 385 -82 b 405 -91 426 -79 437 -63 b 451 -41 449 -3 451 23 b 452 56 452 89 453 121 b 454 187 458 252 459 318 b 463 450 467 581 463 713 b 461 768 361 737 355 695 b 336 559 334 422 334 285 b 334 257 334 229 334 201 b 315 194 296 186 277 180 b 251 171 222 167 203 190 b 166 233 174 312 178 364 b 185 430 199 494 210 558 b 216 590 222 622 224 655 b 226 680 226 711 199 722 b 185 727 166 720 159 707 b 143 676 133 641 121 608 b 108 571 96 533 86 496 b 65 421 49 344 50 266 b 51 192 88 125 165 113 z"},"D":{"x_min":0,"x_max":1167,"ha":1167,"o":"m 732 -240 b 831 -115 907 33 946 189 b 980 188 1013 187 1047 184 b 1091 180 1135 173 1178 165 b 1200 160 1228 196 1198 202 b 1118 218 1036 226 955 226 b 958 245 962 264 965 283 b 993 470 949 686 777 791 b 620 887 412 858 264 759 b 193 711 134 647 85 577 b 32 499 -13 410 -29 318 b -44 234 -34 140 20 72 b 47 38 82 13 115 -15 b 127 -26 139 -38 150 -50 b 91 -97 38 -152 0 -215 b -48 -294 -66 -398 1 -473 b 60 -538 164 -553 247 -545 b 443 -526 614 -390 732 -240 z m 183 -16 b 129 43 57 78 27 158 b -33 320 71 511 176 632 b 284 755 451 845 617 797 b 696 774 765 723 806 652 b 849 578 865 491 864 406 b 863 344 854 282 839 221 b 660 205 486 153 327 67 b 327 94 327 122 327 149 b 329 294 334 439 317 583 b 314 611 281 617 257 611 b 229 604 206 582 205 553 b 196 405 189 256 194 108 b 195 68 197 28 201 -12 b 196 -15 192 -18 188 -21 b 186 -20 185 -18 183 -16 z m 377 -407 b 311 -440 235 -456 162 -440 b 82 -423 46 -356 51 -278 b 57 -199 112 -134 174 -82 b 183 -95 191 -108 198 -122 b 208 -141 217 -161 224 -181 b 234 -227 249 -273 278 -307 b 292 -324 326 -305 331 -287 b 347 -218 334 -140 331 -70 b 329 -38 329 -7 328 25 b 480 114 653 168 828 184 b 800 87 756 -6 704 -89 b 625 -218 514 -340 377 -407 z"},"^":{"x_min":0,"x_max":351,"ha":351,"o":"m 301 587 b 288 651 247 789 158 765 b 112 753 83 709 68 667 b 54 630 42 585 57 546 b 67 519 106 542 116 556 b 133 581 143 610 154 638 b 155 640 156 643 158 646 b 161 639 165 631 168 623 b 179 598 186 573 195 547 b 210 500 309 542 301 587 z"},"0":{"x_min":0,"x_max":573,"ha":573,"o":"m 96 69 b 125 -2 177 -65 260 -64 b 337 -63 404 -3 445 56 b 527 174 540 344 502 479 b 472 587 369 771 230 691 b 187 665 160 621 146 573 b 140 574 134 574 129 573 b 105 569 81 553 74 528 b 53 452 48 368 51 290 b 53 214 67 139 96 69 z m 252 665 b 308 694 369 643 390 593 b 413 539 422 477 425 419 b 432 311 420 192 363 97 b 348 72 311 17 275 28 b 226 43 204 109 190 153 b 165 228 162 304 166 380 b 183 356 207 338 240 334 b 260 332 286 365 259 368 b 192 377 176 458 178 514 b 180 567 200 638 252 665 z"},"F":{"x_min":0,"x_max":566,"ha":566,"o":"m 486 638 b 511 732 508 892 370 878 b 313 872 253 836 212 797 b 167 756 130 707 99 654 b -38 426 -58 142 -5 -114 b 20 -235 66 -370 177 -437 b 274 -496 425 -476 494 -381 b 524 -339 539 -277 528 -227 b 514 -168 469 -130 418 -104 b 341 -66 253 -62 168 -66 b 173 -63 178 -60 183 -57 b 231 -30 278 -4 326 23 b 418 75 513 125 599 186 b 623 204 595 224 574 209 b 486 146 388 96 294 43 b 248 17 202 -8 156 -34 b 147 -40 136 -45 125 -51 b 115 2 109 57 106 111 b 288 233 430 426 486 638 z m 166 549 b 198 641 242 728 309 800 b 344 838 404 852 435 801 b 461 758 452 697 442 651 b 396 454 268 273 105 155 b 102 289 122 423 166 549 z m 329 -114 b 413 -135 522 -215 477 -315 b 443 -391 331 -401 268 -357 b 190 -302 156 -194 135 -104 b 200 -100 267 -99 329 -114 z"},"`":{"x_min":0,"x_max":240,"ha":240,"o":"m 187 613 b 166 666 139 739 88 770 b 76 777 52 766 50 752 b 48 721 59 693 68 665 b 79 633 90 603 102 571 b 116 530 205 570 187 613 z"},"k":{"x_min":0,"x_max":575,"ha":575,"o":"m 563 178 b 541 120 520 59 487 6 b 472 -18 447 -47 416 -47 b 394 -48 389 -31 375 -10 b 362 11 348 32 339 55 b 327 82 320 110 309 137 b 298 162 284 189 261 203 b 258 205 256 206 254 207 b 265 212 276 218 286 224 b 322 245 358 269 383 303 b 402 328 417 368 395 396 b 375 423 337 422 308 412 b 235 388 187 310 156 244 b 143 217 133 190 124 162 b 123 171 122 180 121 189 b 119 221 117 254 115 286 b 186 378 246 478 293 585 b 322 651 346 719 358 791 b 368 856 376 939 343 999 b 312 1056 258 1073 198 1049 b 132 1022 83 961 53 899 b 23 838 9 772 0 705 b -10 629 -16 552 -18 475 b -21 390 -18 304 -10 219 b -6 177 0 135 8 93 b 16 48 24 2 49 -37 b 67 -67 123 -48 128 -16 b 130 -5 131 6 131 17 b 141 69 152 121 169 172 b 172 165 175 157 176 152 b 180 137 186 123 190 108 b 199 73 207 37 220 3 b 231 -28 248 -57 275 -76 b 289 -86 305 -94 323 -97 b 330 -98 338 -99 346 -99 b 347 -99 370 -97 361 -98 b 426 -94 477 -68 515 -14 b 556 43 578 115 602 181 b 610 202 569 196 563 178 z m 112 387 b 110 516 118 645 139 772 b 146 815 203 1059 285 981 b 330 939 321 843 312 788 b 302 722 279 657 253 596 b 215 508 168 425 113 347 b 112 361 112 374 112 387 z m 191 231 b 207 267 227 302 253 333 b 270 353 292 376 319 382 b 367 394 366 343 344 316 b 312 276 245 237 191 231 z"},"u":{"x_min":0,"x_max":511,"ha":511,"o":"m 501 186 b 478 136 458 84 432 35 b 420 12 407 -11 389 -29 b 384 -34 370 -50 361 -45 b 356 -42 352 -23 351 -18 b 345 7 348 36 347 62 b 346 91 346 119 347 147 b 349 203 356 258 359 314 b 361 343 321 351 301 347 b 273 342 240 323 235 293 b 234 289 233 285 232 281 b 217 237 205 192 191 148 b 182 120 172 93 161 66 b 156 56 151 44 144 34 b 140 28 135 22 129 18 b 127 20 125 22 125 25 b 115 36 116 75 115 89 b 114 115 115 140 117 166 b 121 220 134 274 135 328 b 135 359 96 367 73 363 b 42 358 13 338 3 307 b -17 239 -23 156 -14 86 b -5 24 33 -46 107 -29 b 169 -14 194 38 214 93 b 217 100 219 108 222 115 b 223 101 224 87 226 73 b 234 17 251 -78 321 -85 b 380 -91 421 -54 451 -8 b 489 51 515 119 539 184 b 546 205 508 200 501 186 z"},"]":{"x_min":0,"x_max":349,"ha":349,"o":"m 288 199 b 284 312 281 425 275 538 b 269 643 265 752 239 855 b 227 903 215 968 171 998 b 138 1021 90 1030 58 1002 b 37 983 62 967 81 981 b 122 1010 130 876 132 859 b 137 802 139 745 141 688 b 145 576 146 463 148 351 b 151 237 153 122 155 8 b 156 -48 160 -105 160 -161 b 160 -174 161 -194 153 -205 b 149 -211 129 -216 116 -220 b 98 -227 79 -237 72 -256 b 67 -270 70 -290 87 -296 b 138 -313 196 -299 237 -265 b 278 -229 295 -181 298 -128 b 302 -20 292 91 288 199 z"},"U":{"x_min":0,"x_max":1403,"ha":1403,"o":"m 1108 -139 b 1079 -127 1058 -94 1043 -68 b 1022 -32 1005 8 991 46 b 983 67 976 89 969 110 b 972 119 976 127 979 135 b 1043 313 1104 499 1096 690 b 1094 734 1088 778 1073 819 b 1062 851 1045 890 1013 906 b 944 940 883 855 860 802 b 822 715 813 615 810 522 b 806 430 806 338 816 247 b 825 158 843 69 875 -14 b 870 -26 864 -38 859 -50 b 823 -126 781 -205 721 -265 b 697 -290 663 -315 626 -307 b 594 -299 573 -270 558 -243 b 519 -175 507 -89 500 -12 b 493 75 494 162 496 249 b 497 338 499 426 488 515 b 478 591 463 671 415 733 b 376 783 317 831 254 845 b 182 862 105 834 52 785 b -1 736 -42 662 -41 589 b -40 524 5 468 73 466 b 102 466 127 477 148 497 b 156 504 155 516 146 521 b 135 528 121 520 114 513 b 88 488 41 511 23 535 b -4 571 1 621 14 661 b 42 743 116 818 207 814 b 246 812 289 795 310 761 b 328 733 340 698 345 665 b 352 626 361 588 365 549 b 369 502 370 454 368 407 b 363 223 337 28 389 -152 b 411 -227 450 -302 521 -341 b 590 -378 668 -361 727 -313 b 792 -262 837 -182 875 -110 b 882 -95 890 -80 897 -65 b 925 -126 965 -182 1030 -204 b 1117 -233 1198 -183 1260 -127 b 1318 -76 1360 -11 1395 58 b 1413 94 1429 131 1445 168 b 1456 192 1417 192 1409 174 b 1377 104 1344 32 1298 -31 b 1259 -84 1183 -170 1108 -139 z m 932 293 b 922 377 917 461 916 546 b 915 591 912 636 914 681 b 916 725 924 767 929 809 b 932 829 932 845 945 861 b 961 881 980 878 997 860 b 1026 830 1038 781 1044 741 b 1059 651 1050 556 1033 466 b 1015 376 988 287 957 200 b 955 194 953 188 951 182 b 943 219 937 256 932 293 z"},"o":{"x_min":0,"x_max":353,"ha":353,"o":"m 363 214 b 339 208 318 196 294 190 b 287 188 280 186 272 185 b 273 194 274 202 274 211 b 278 302 226 447 109 423 b 39 409 2 342 8 278 b 1 271 -3 263 -6 254 b -29 161 -37 -40 107 -30 b 200 -23 249 64 267 150 b 267 150 268 150 269 150 b 303 157 332 173 365 182 b 389 188 391 222 363 214 z m 177 44 b 131 -10 102 58 100 100 b 100 120 101 139 103 158 b 126 149 152 145 177 143 b 192 143 206 143 221 144 b 213 107 199 70 177 44 z m 228 198 b 227 192 227 186 226 179 b 222 179 218 179 213 179 b 178 178 139 183 108 201 b 112 221 115 241 118 262 b 124 305 87 314 51 304 b 52 322 56 340 67 356 b 100 408 160 387 191 343 b 220 302 230 248 228 198 z"},"N":{"x_min":0,"x_max":1104,"ha":1104,"o":"m 709 -295 b 690 -329 659 -392 613 -391 b 577 -391 554 -345 539 -318 b 516 -276 500 -231 487 -185 b 430 10 433 218 424 419 b 420 526 411 634 383 738 b 363 812 316 933 224 937 b 106 943 76 772 57 687 b 24 540 6 389 -11 239 b -19 163 -27 87 -34 10 b -42 -67 -47 -146 -60 -223 b -64 -246 -69 -268 -76 -291 b -78 -298 -101 -368 -109 -365 b -131 -357 -169 -392 -142 -401 b -42 -436 -14 -247 -6 -186 b 5 -105 11 -24 19 56 b 36 226 53 396 81 564 b 92 633 105 703 125 770 b 135 808 155 898 206 900 b 260 901 270 799 274 761 b 281 704 289 647 293 588 b 301 469 298 350 298 230 b 298 121 302 10 325 -97 b 346 -196 381 -306 448 -383 b 513 -459 623 -468 692 -394 b 762 -319 797 -214 823 -118 b 847 -33 862 54 875 142 b 928 141 981 151 1030 171 b 1071 187 1109 211 1142 240 b 1165 260 1136 282 1116 264 b 1051 207 967 175 882 179 b 881 179 881 179 880 179 b 882 195 884 211 886 227 b 902 343 919 461 918 578 b 917 686 903 809 846 903 b 823 940 789 967 744 966 b 697 965 653 939 620 908 b 463 760 489 519 580 344 b 623 262 686 188 777 158 b 794 153 812 149 829 146 b 815 46 797 -54 768 -151 b 753 -201 734 -249 709 -295 z m 660 305 b 552 457 498 699 622 857 b 650 892 697 938 746 928 b 795 918 817 858 832 817 b 870 714 875 600 870 491 b 864 389 850 287 835 185 b 764 201 703 244 660 305 z"},"+":{"x_min":0,"x_max":382,"ha":382,"o":"m 320 343 b 293 345 266 345 240 344 b 242 385 243 425 242 466 b 242 527 128 494 123 446 b 119 408 117 371 116 333 b 100 331 85 328 70 325 b 44 320 42 284 73 290 b 87 293 101 295 115 297 b 115 282 115 267 116 252 b 117 200 112 121 152 81 b 173 60 214 83 221 107 b 237 163 234 227 237 284 b 237 292 238 300 238 308 b 259 308 279 308 300 306 b 311 306 325 310 331 321 b 335 330 332 343 320 343 z"},"G":{"x_min":0,"x_max":823,"ha":823,"o":"m 369 477 b 354 490 318 465 335 451 b 399 395 487 438 545 482 b 612 533 668 607 690 689 b 711 767 691 857 614 895 b 530 937 441 916 362 874 b 204 791 91 634 22 473 b -17 382 -45 281 -33 181 b -23 95 23 11 109 -17 b 211 -50 319 -1 401 58 b 464 104 520 161 568 223 b 571 178 575 132 577 86 b 520 57 465 24 411 -11 b 350 -51 291 -97 239 -150 b 191 -199 142 -259 119 -325 b 98 -390 116 -455 177 -489 b 239 -525 317 -510 380 -485 b 510 -434 613 -331 663 -201 b 696 -117 700 -25 694 64 b 693 77 692 90 691 103 b 742 127 795 148 848 166 b 857 170 871 178 869 190 b 868 202 854 206 845 202 b 791 183 738 162 686 139 b 683 158 680 177 677 196 b 667 242 657 284 624 319 b 610 334 584 325 571 309 b 565 306 560 303 556 298 b 508 241 462 182 405 134 b 356 93 290 45 222 47 b 157 49 122 106 103 162 b 81 230 87 305 105 373 b 138 503 211 632 300 732 b 372 813 579 960 643 793 b 675 711 630 620 577 559 b 535 508 436 420 369 477 z m 414 -409 b 366 -446 303 -478 242 -465 b 173 -450 143 -387 166 -322 b 187 -260 236 -205 282 -159 b 326 -116 375 -78 427 -43 b 475 -10 526 20 578 48 b 582 -124 557 -296 414 -409 z"},"q":{"x_min":0,"x_max":482,"ha":482,"o":"m 510 189 b 522 207 488 211 478 198 b 432 135 384 74 328 21 b 328 27 329 33 330 39 b 335 90 342 140 349 191 b 358 245 370 300 371 355 b 371 385 332 392 310 389 b 292 385 274 377 261 364 b 205 397 118 372 69 328 b -4 264 -41 143 -13 50 b 0 6 31 -33 81 -31 b 121 -29 159 -7 182 24 b 189 33 195 43 200 54 b 199 42 198 30 197 17 b 190 -84 191 -189 216 -288 b 227 -330 244 -372 280 -399 b 308 -420 353 -429 387 -420 b 474 -396 482 -300 462 -227 b 441 -151 400 -60 324 -28 b 324 -28 324 -28 324 -28 b 396 35 455 110 510 189 z m 182 114 b 171 81 159 39 128 19 b 100 0 90 55 88 74 b 82 135 92 201 125 255 b 137 274 154 296 176 304 b 194 311 216 308 233 299 b 220 236 204 174 182 114 z m 425 -272 b 429 -296 430 -322 422 -346 b 414 -365 386 -400 362 -381 b 350 -371 341 -346 336 -331 b 328 -311 326 -290 324 -269 b 318 -204 317 -139 321 -74 b 381 -116 414 -207 425 -272 z"},"d":{"x_min":0,"x_max":670,"ha":670,"o":"m 662 186 b 638 137 612 86 577 43 b 561 24 543 4 519 -7 b 514 -9 509 -11 501 -12 b 482 -15 463 7 452 22 b 440 40 431 62 424 83 b 419 100 418 103 413 122 b 415 115 410 132 410 134 b 408 142 406 150 405 158 b 398 191 393 224 389 257 b 385 289 382 321 380 353 b 457 451 525 557 571 673 b 596 736 616 800 626 867 b 636 931 643 1001 625 1065 b 610 1114 576 1159 521 1166 b 507 1167 493 1166 479 1163 b 475 1162 458 1156 461 1157 b 454 1155 448 1152 442 1149 b 436 1146 431 1143 425 1139 b 447 1152 412 1132 417 1135 b 413 1132 408 1129 404 1126 b 391 1115 379 1102 368 1088 b 348 1062 331 1033 317 1002 b 249 847 232 672 233 504 b 233 461 234 417 237 374 b 183 390 112 367 69 328 b -4 264 -41 143 -13 50 b 0 6 31 -33 81 -31 b 121 -29 159 -7 182 24 b 212 65 224 119 238 166 b 244 188 250 210 256 232 b 268 168 284 101 317 44 b 334 14 354 -16 383 -35 b 424 -63 479 -58 524 -41 b 612 -6 661 101 697 180 b 708 204 670 203 662 186 z m 182 114 b 171 81 159 39 128 19 b 100 0 90 55 88 74 b 82 135 92 201 125 255 b 137 274 154 296 176 304 b 194 311 216 308 233 299 b 220 236 204 174 182 114 z m 498 1103 b 497 1103 497 1103 497 1103 b 499 1104 500 1105 498 1103 z m 497 1103 b 497 1103 497 1103 497 1103 b 497 1103 496 1102 495 1102 b 495 1102 495 1102 495 1102 b 496 1102 497 1103 497 1103 z m 375 478 b 373 631 384 770 418 920 b 425 950 433 980 443 1009 b 445 1015 447 1021 449 1028 b 450 1029 450 1029 450 1030 b 450 1030 451 1031 452 1033 b 457 1045 463 1057 470 1068 b 471 1071 473 1073 474 1075 b 477 1080 481 1085 485 1091 b 484 1090 487 1094 490 1098 b 490 1098 490 1098 491 1098 b 492 1098 494 1100 495 1101 b 497 1103 501 1104 502 1104 b 515 1108 527 1106 540 1097 b 596 1058 590 960 584 901 b 577 833 561 766 537 702 b 499 597 442 501 376 412 b 375 434 375 456 375 478 z"},"1":{"x_min":0,"x_max":476,"ha":476,"o":"m 88 538 b 104 563 223 729 250 657 b 262 622 252 578 249 543 b 247 502 243 460 237 419 b 216 256 186 91 190 -75 b 190 -80 191 -83 192 -87 b 172 -91 152 -95 133 -100 b 107 -107 105 -143 136 -136 b 222 -114 310 -101 399 -95 b 423 -94 440 -56 408 -58 b 377 -60 345 -63 314 -67 b 319 -59 321 -50 321 -40 b 312 157 360 354 339 551 b 333 610 305 731 220 709 b 144 689 93 605 53 544 b 39 523 78 523 88 538 z"},"5":{"x_min":0,"x_max":629,"ha":629,"o":"m 55 378 b 48 358 47 335 61 318 b 84 291 123 297 153 309 b 191 326 223 342 266 336 b 449 308 488 43 333 -49 b 290 -75 236 -88 196 -50 b 155 -11 152 47 153 100 b 154 134 95 113 90 90 b 73 11 100 -86 183 -117 b 263 -147 351 -102 412 -52 b 541 55 558 276 414 379 b 375 407 329 425 281 428 b 254 430 227 428 201 423 b 197 422 194 421 190 420 b 193 429 196 438 200 447 b 209 475 219 502 228 530 b 241 571 257 614 265 657 b 270 658 274 659 278 660 b 324 669 370 680 416 685 b 456 690 510 700 538 664 b 551 648 591 673 576 692 b 529 752 419 722 358 711 b 328 705 299 698 270 693 b 271 708 251 714 240 713 b 222 712 208 702 198 688 b 196 685 195 682 193 680 b 156 676 119 677 92 707 b 79 722 42 698 57 680 b 86 647 128 640 171 642 b 153 608 138 570 122 535 b 98 484 72 431 55 378 z"}}}
